<svg xmlns="http://www.w3.org/2000/svg" viewBox="0 0 1366 387.63"><defs><style>.cls-1{fill:#ccc;}.cls-2,.cls-3,.cls-5,.cls-6{fill:none;}.cls-3,.cls-4{stroke:#000;}.cls-3,.cls-4,.cls-5,.cls-6{stroke-miterlimit:10;}.cls-4{fill:#fff;}.cls-5,.cls-6{stroke:#ccc;}.cls-5{opacity:0.93;}</style></defs><title>mapa_level_02</title><g id="Mapa"><g id="Group_120" data-name="Group 120"><path id="Path_50" data-name="Path 50" d="M476.3,38H585.42V36.23H476.3Z"/></g><g id="Group_121" data-name="Group 121"><rect id="Rectangle_89" data-name="Rectangle 89" x="479.79" y="7.05" width="1.27" height="29.18"/></g><g id="Group_121-2" data-name="Group 121"><rect id="Rectangle_89-2" data-name="Rectangle 89" x="475.7" y="7.05" width="1.97" height="30.93"/></g><g id="Group_122" data-name="Group 122"><rect id="Rectangle_90" data-name="Rectangle 90" x="484.55" y="7.05" width="1.27" height="29.18"/></g><g id="Group_123" data-name="Group 123"><rect id="Rectangle_91" data-name="Rectangle 91" x="489.47" y="7.05" width="1.27" height="29.18"/></g><g id="Group_124" data-name="Group 124"><rect id="Rectangle_92" data-name="Rectangle 92" x="494.22" y="7.05" width="1.27" height="29.18"/></g><g id="Group_125" data-name="Group 125"><rect id="Rectangle_93" data-name="Rectangle 93" x="498.98" y="7.05" width="1.27" height="29.18"/></g><g id="Group_126" data-name="Group 126"><rect id="Rectangle_94" data-name="Rectangle 94" x="503.74" y="7.05" width="1.27" height="29.18"/></g><g id="Group_127" data-name="Group 127"><rect id="Rectangle_95" data-name="Rectangle 95" x="508.5" y="7.05" width="1.27" height="29.18"/></g><g id="Group_128" data-name="Group 128"><rect id="Rectangle_96" data-name="Rectangle 96" x="513.57" y="7.05" width="1.27" height="29.18"/></g><g id="Group_129" data-name="Group 129"><rect id="Rectangle_97" data-name="Rectangle 97" x="518.33" y="7.05" width="1.27" height="29.18"/></g><g id="Group_130" data-name="Group 130"><rect id="Rectangle_98" data-name="Rectangle 98" x="523.09" y="7.05" width="1.27" height="29.18"/></g><g id="Group_131" data-name="Group 131"><rect id="Rectangle_99" data-name="Rectangle 99" x="527.85" y="7.05" width="1.27" height="29.18"/></g><g id="Group_132" data-name="Group 132"><rect id="Rectangle_100" data-name="Rectangle 100" x="532.61" y="7.05" width="1.27" height="29.18"/></g><g id="Group_133" data-name="Group 133"><rect id="Rectangle_101" data-name="Rectangle 101" x="537.36" y="7.05" width="1.27" height="29.18"/></g><g id="Group_134" data-name="Group 134"><rect id="Rectangle_102" data-name="Rectangle 102" x="542.12" y="7.05" width="1.27" height="29.18"/></g><g id="Group_135" data-name="Group 135"><rect id="Rectangle_103" data-name="Rectangle 103" x="546.88" y="7.05" width="1.27" height="29.18"/></g><g id="Group_136" data-name="Group 136"><rect id="Rectangle_104" data-name="Rectangle 104" x="551.8" y="7.05" width="1.27" height="29.18"/></g><g id="Group_137" data-name="Group 137"><rect id="Rectangle_105" data-name="Rectangle 105" x="556.55" y="7.05" width="1.27" height="29.18"/></g><g id="Group_138" data-name="Group 138"><rect id="Rectangle_106" data-name="Rectangle 106" x="561.31" y="7.05" width="1.27" height="29.18"/></g><g id="Group_139" data-name="Group 139"><rect id="Rectangle_107" data-name="Rectangle 107" x="566.07" y="7.05" width="1.27" height="29.18"/></g><g id="Group_140" data-name="Group 140"><rect id="Rectangle_108" data-name="Rectangle 108" x="571.15" y="7.05" width="1.27" height="29.18"/></g><g id="Group_141" data-name="Group 141"><rect id="Rectangle_109" data-name="Rectangle 109" x="575.9" y="7.05" width="1.27" height="29.18"/></g><g id="Group_142" data-name="Group 142"><rect id="Rectangle_110" data-name="Rectangle 110" x="580.66" y="7.05" width="1.27" height="29.18"/></g><g id="Group_171" data-name="Group 171"><rect id="Rectangle_138" data-name="Rectangle 138" x="585" y="6.82" width="1.68" height="31.16"/></g><g id="Group_120-2" data-name="Group 120"><path id="Path_50-2" data-name="Path 50" d="M586.09,350.73H477v1.75H586.09Z"/></g><g id="Group_121-3" data-name="Group 121"><rect id="Rectangle_89-3" data-name="Rectangle 89" x="581.33" y="352.48" width="1.27" height="29.18"/></g><g id="Group_121-4" data-name="Group 121"><rect id="Rectangle_89-4" data-name="Rectangle 89" x="584.72" y="350.73" width="1.97" height="30.93"/></g><g id="Group_122-2" data-name="Group 122"><rect id="Rectangle_90-2" data-name="Rectangle 90" x="576.57" y="352.48" width="1.27" height="29.18"/></g><g id="Group_123-2" data-name="Group 123"><rect id="Rectangle_91-2" data-name="Rectangle 91" x="571.66" y="352.48" width="1.27" height="29.18"/></g><g id="Group_124-2" data-name="Group 124"><rect id="Rectangle_92-2" data-name="Rectangle 92" x="566.9" y="352.48" width="1.27" height="29.18"/></g><g id="Group_125-2" data-name="Group 125"><rect id="Rectangle_93-2" data-name="Rectangle 93" x="562.14" y="352.48" width="1.27" height="29.18"/></g><g id="Group_126-2" data-name="Group 126"><rect id="Rectangle_94-2" data-name="Rectangle 94" x="557.38" y="352.48" width="1.27" height="29.18"/></g><g id="Group_127-2" data-name="Group 127"><rect id="Rectangle_95-2" data-name="Rectangle 95" x="552.63" y="352.48" width="1.27" height="29.18"/></g><g id="Group_128-2" data-name="Group 128"><rect id="Rectangle_96-2" data-name="Rectangle 96" x="547.55" y="352.48" width="1.27" height="29.18"/></g><g id="Group_129-2" data-name="Group 129"><rect id="Rectangle_97-2" data-name="Rectangle 97" x="542.79" y="352.48" width="1.27" height="29.18"/></g><g id="Group_130-2" data-name="Group 130"><rect id="Rectangle_98-2" data-name="Rectangle 98" x="538.03" y="352.48" width="1.27" height="29.18"/></g><g id="Group_131-2" data-name="Group 131"><rect id="Rectangle_99-2" data-name="Rectangle 99" x="533.28" y="352.48" width="1.27" height="29.18"/></g><g id="Group_132-2" data-name="Group 132"><rect id="Rectangle_100-2" data-name="Rectangle 100" x="528.52" y="352.48" width="1.27" height="29.18"/></g><g id="Group_133-2" data-name="Group 133"><rect id="Rectangle_101-2" data-name="Rectangle 101" x="523.76" y="352.48" width="1.27" height="29.18"/></g><g id="Group_134-2" data-name="Group 134"><rect id="Rectangle_102-2" data-name="Rectangle 102" x="519" y="352.48" width="1.27" height="29.18"/></g><g id="Group_135-2" data-name="Group 135"><rect id="Rectangle_103-2" data-name="Rectangle 103" x="514.24" y="352.48" width="1.27" height="29.18"/></g><g id="Group_136-2" data-name="Group 136"><rect id="Rectangle_104-2" data-name="Rectangle 104" x="509.33" y="352.48" width="1.27" height="29.18"/></g><g id="Group_137-2" data-name="Group 137"><rect id="Rectangle_105-2" data-name="Rectangle 105" x="504.57" y="352.48" width="1.27" height="29.18"/></g><g id="Group_138-2" data-name="Group 138"><rect id="Rectangle_106-2" data-name="Rectangle 106" x="499.81" y="352.48" width="1.27" height="29.18"/></g><g id="Group_139-2" data-name="Group 139"><rect id="Rectangle_107-2" data-name="Rectangle 107" x="495.05" y="352.48" width="1.27" height="29.18"/></g><g id="Group_140-2" data-name="Group 140"><rect id="Rectangle_108-2" data-name="Rectangle 108" x="489.98" y="352.48" width="1.27" height="29.18"/></g><g id="Group_141-2" data-name="Group 141"><rect id="Rectangle_109-2" data-name="Rectangle 109" x="485.22" y="352.48" width="1.27" height="29.18"/></g><g id="Group_142-2" data-name="Group 142"><rect id="Rectangle_110-2" data-name="Rectangle 110" x="480.46" y="352.48" width="1.27" height="29.18"/></g><g id="Group_171-2" data-name="Group 171"><rect id="Rectangle_138-2" data-name="Rectangle 138" x="475.7" y="350.73" width="1.68" height="31.16"/></g><path class="cls-1" d="M216.84,1.37V385.79H1V1.37H216.84M5.1,381.69H212.74V5.48H5.1V381.69M217.84.37H0V386.79H217.84V.37ZM6.1,6.48H211.74V380.69H6.1V6.48Z"/><path class="cls-2" d="M398.4,331.88l96-95.66.81-.81-.81-.8-39.12-39.13a2.35,2.35,0,0,1-.64-1.44,1.75,1.75,0,0,1,.64-1.45L493.9,154l.81-.81-.81-.8L397.69,56.45l-46.48,46.39V284.59Z"/><polygon class="cls-2" points="782.57 7.76 779.67 10.66 779.19 10.17 779.19 188.93 869.67 99.85 870.48 99.05 869.67 98.24 797.71 28.21 801.25 25.47 801.25 25.47 875.47 97.92 967.4 187.44 968.21 188.18 968.21 5.62 780.43 5.62 782.57 7.76"/><polygon class="cls-2" points="351.21 5.62 351.21 96.51 442.26 5.62 351.21 5.62"/><polygon class="cls-2" points="581.97 316.4 582.77 315.59 705.77 194.84 706.58 194.04 705.77 193.23 582.77 72.48 581.97 71.68 581.16 72.48 460.41 193.24 459.6 194.04 460.41 194.85 581.16 315.59 581.97 316.4"/><polygon class="cls-2" points="351.21 381.49 441.58 381.49 351.21 290.94 351.21 381.49"/><path class="cls-2" d="M933,234.13l-2.74-2.9,37.19-36.38.81-.81-1-.8-92.89-90.33-.81-.8-.8.8L781,193.24l-.8.8.8.81,36.71,36.37-2.9,2.9-33.49-33.33-2.09-2.09V360.84h.64v19l2.1-2.1,33.48-33,2.9,2.9L784,381.49H968.21V199.59l-1,.89Zm-57.65,57-39,38.48-2.89-2.9,36.7-36.22.81-.8-.81-.81-36.7-36.39,2.9-2.9,36.7,36.55.81.81.8-.81,37.52-36.71h0l2.73,2.9Z"/><path class="cls-2" d="M756,195.81v-4h19.15V8.25l-107.7,110-2.9-2.9L772.05,5.62H448.61l-48,47.93,23.76,23.76.8.81.81-.81,41.69-41.54,2.9,2.9L429,80.21l-.8.8.8.81,67.79,67.62.8.81.81-.81,81.94-81.95a2,2,0,0,1,1.45-.64,1.94,1.94,0,0,1,1.45.64L710,191.78l.32.33h20.29v4H710.28l-.32.32L648.3,257l-1,.8,1,.81,20.93,19.8-2.74,2.9-21.25-20-.8-.81-.81.81-60.37,59.24a2.06,2.06,0,0,1-1.45.65,2,2,0,0,1-1.45-.65L498.73,239l-.8-.81-.81.81-68.26,68.1-.81.8.81.81,41.53,41.54-2.89,2.9-41.38-41.38-.81-.81-.8.81-23.21,23,47.37,47.11H772.39l-87.07-82.71,2.58-2.9h0l85.82,81.79,1.44,1.34V195.81Z"/><path d="M446.52,1.37l.15.15H968.21v4.1H780.43l2.14,2.14-2.9,2.9-.48-.49V5.48h-4V8.25l-107.7,110-2.9-2.9L772.05,5.62H448.61l-48,47.93,23.76,23.76.8.81.81-.81,41.69-41.54,2.9,2.9L429,80.21l-.8.8.8.81,67.79,67.62.8.81.81-.81,81.94-81.95a2,2,0,0,1,1.45-.64,1.94,1.94,0,0,1,1.45.64L710,191.78l.32.33h20.29v4H710.28l-.32.32L648.3,257l-1,.8,1,.81,20.93,19.8-2.74,2.9-21.25-20-.8-.81-.81.81-60.37,59.24a2.06,2.06,0,0,1-1.45.65,2,2,0,0,1-1.45-.65L498.73,239l-.8-.81-.81.81-68.26,68.1-.81.8.81.81,41.53,41.54-2.89,2.9-41.38-41.38-.81-.81-.8.81-23.21,23,47.37,47.11H772.39l-87.07-82.71,2.58-2.9h0l85.82,81.79,1.44,1.34v2.8h4V360.84h.64v19l2.1-2.1,33.48-33,2.9,2.9L784,381.49H968.21v4.1H447.15l-.74.74-.73-.74H347.11V286.83l-.07-.07.07-.07V194h4.1v90.55l47.19,47.29,96-95.66.81-.81-.81-.8-39.12-39.13a2.35,2.35,0,0,1-.64-1.44,1.75,1.75,0,0,1,.64-1.45L493.9,154l.81-.81-.81-.8L397.69,56.45l-46.48,46.39V194h-4.1V100.9l-.15-.15.15-.15V1.52h99.26l.15-.15M351.21,96.51,442.26,5.62H351.21V96.51M582,316.4l.8-.81,123-120.75.8-.8-.8-.81-123-120.75-.8-.8-.81.8L460.41,193.24l-.81.8.81.81L581.16,315.59l.81.81M351.21,381.49h90.37l-90.37-90.55v90.55M446.52,0,446,.52H346.11v99.66l-.57.57.57.56v185l-.49.48.49.49v99.34h99.15l.45.44.7.71.71-.71.45-.44H969.21v-6.1H786.47L819,348.35l.71-.71-.71-.71-2.9-2.9-.7-.7-.71.7-33.48,33-.4.39V359.84h-2.64V381.2h-2V379l-.32-.29-1.44-1.34-85.81-81.78-.82-.79-.65.89-2.54,2.86-.65.72.71.67,85.24,81H449.08l-46.36-46.11,22.49-22.34.1-.1.1.1,41.38,41.37.71.71.7-.71,2.9-2.89.71-.71-.71-.71L429.56,308l-.1-.1.1-.09,68.27-68.11.1-.1.09.1,81.63,81.63a3,3,0,0,0,2.15.94,3.08,3.08,0,0,0,2.18-1l60.35-59.22.11-.11.09.1,21.28,20,.73.68.68-.72,2.74-2.9.68-.73-.72-.68L649,257.87l0,0,0,0-.05,0,.05,0,0,0,0,0,61.66-60.53,0,0h20.87v-6H710.7l0,0L584,66.79a3,3,0,0,0-2.16-.94,3,3,0,0,0-2.18,1L497.7,148.73l-.1.1-.1-.1L429.72,81.11l-.1-.1.1-.09,41.54-41.54.71-.71-.71-.71-2.9-2.89-.7-.71-.71.7L425.25,76.6l-.1.1-.1-.1L402,53.55,449,6.62H769.67l-105.82,108-.7.71.7.7,2.9,2.9.71.71.71-.72L775.88,9l.28-.29V6.48h2v4.11l.29.29.49.48.7.71.71-.71,2.9-2.89.71-.71-.71-.71-.43-.43H969.21V.52H447.08L446.52,0ZM352.21,6.62h87.63L352.21,94.1V6.62Zm0,96.64,45.48-45.4L493.19,153l.1.1-.1.1-38.6,38.61a2.71,2.71,0,0,0-1,2.24,3.44,3.44,0,0,0,.91,2.08l39.15,39.15.09.09-.09.1-95.27,95-46.2-46.29V103.26ZM461,194l.1-.1L581.87,73.19l.1-.1.09.1L705.07,194l.1.09-.1.1-123,120.74-.1.1-.1-.09L461.12,194.14l-.1-.1ZM352.21,380.49V293.36l87,87.13Z"/><path class="cls-1" d="M1217.65,385.65l-3.27.78-.17-.78h3.44m8.19-1H1213l.25,1.2.17.79.21,1,1-.23c1.1-.25,2.2-.52,3.29-.79l7.95-2Z"/><polygon class="cls-3" points="912.18 249.42 874.66 286.13 873.86 286.94 873.05 286.13 836.35 249.58 833.45 252.48 870.15 288.87 870.96 289.68 870.15 290.48 833.45 326.7 836.34 329.6 875.3 291.12 914.91 252.32 912.18 249.42 912.18 249.42"/><polygon class="cls-4" points="967.4 194.85 930.21 231.23 932.95 234.13 967.24 200.48 968.21 199.59 968.21 194.04 967.4 194.85"/><polygon class="cls-4" points="875.47 97.92 801.25 25.47 801.25 25.47 797.71 28.21 869.67 98.24 870.48 99.05 869.67 99.85 779.19 188.93 779.19 10.17 777.1 8.08 776.29 7.12 775.49 7.92 775.16 8.25 775.16 191.78 756.01 191.78 756.01 195.81 775.16 195.81 775.16 379.4 775.81 380 775.81 360.84 779.19 360.84 779.19 198.7 781.28 200.79 814.77 234.12 817.67 231.22 780.97 194.85 780.16 194.04 780.97 193.24 872.74 102.91 873.54 102.11 874.35 102.91 967.24 193.24 968.21 194.04 968.21 188.18 967.4 187.44 875.47 97.92"/><polygon class="cls-4" points="775.81 380 775.16 379.4 775.16 382.2 779.19 382.2 779.19 360.84 775.81 360.84 775.81 380"/><polygon class="cls-4" points="776.29 7.12 777.1 8.08 779.19 10.17 779.19 5.48 775.16 5.48 775.16 8.25 775.49 7.92 776.29 7.12"/><polygon class="cls-5" points="968.21 385.59 968.21 385.65 1214.21 385.65 1214.2 385.59 968.21 385.59"/><path class="cls-5" d="M1226.33,5.62a194.14,194.14,0,0,1,134.6,147.53V5.62Z"/><path class="cls-5" d="M1166.24,93.41c-55.39,0-100.63,45.25-100.63,100.79A100.81,100.81,0,0,0,1166.24,295c55.38,0,100.62-45.24,100.62-100.79A100.81,100.81,0,0,0,1166.24,93.41Zm0,179.84A79.22,79.22,0,1,1,1245.45,194,79.21,79.21,0,0,1,1166.24,273.25Z"/><path class="cls-5" d="M1166.24,119a75.19,75.19,0,0,0-75.19,75.19c-.16,41.38,33.65,75.19,75.19,75.19a75.19,75.19,0,0,0,0-150.38Z"/><path class="cls-5" d="M1360.93,236.48a194.6,194.6,0,0,1-128.9,145h128.9Z"/><path class="cls-1" d="M1365,1.52V153.15h-4.1V5.62h-134.6a194.14,194.14,0,0,1,134.6,147.53h-4.16A190.27,190.27,0,0,0,1213.25,6.31l.17-.69h-47l.8.85L1008.78,160.39l-2.74-2.9L1162.36,5.62H973.52v43h-4v-43h-1.29V1.52H1365m1-1H967.21v6.1h1.29v43h6v-43h185.37L1005.35,156.77l-.71.69.68.72,2.73,2.89.7.74.73-.7L1167.9,7.19l.58-.57h43.66l-.11.44,1,.22a189.28,189.28,0,0,1,142.76,146.08l.16.79H1366V.52Zm-133.2,6.1h127.1V144.15A195.28,195.28,0,0,0,1232.83,6.62Z"/><path class="cls-1" d="M1008.78,228l156.68,153.48H1218c72.28-18.39,127.63-78.47,140.11-152.22H1365V385.59H1217.91l-.26.06h-3.44v-.06h-246v-4.1h1.61V370h4v11.48h185.92L1006,230.91l2.73-2.9h0M1232,381.49h128.9v-145a194.6,194.6,0,0,1-128.9,145M1009,226.87l-.57.19h0l-.24.08-.17.18-2.74,2.9-.67.72.7.68,152,148.87H974.84V369h-6v11.48h-1.61v6.1h246.18v.06h4.37l.12,0,.12,0h148V228.27h-8.72l-.14.84a189.4,189.4,0,0,1-139.26,151.38h-52.05l-156.38-153.2-.44-.42Zm228.89,153.62a195.52,195.52,0,0,0,122-135.16V380.49Z"/><path class="cls-1" d="M1166.24,114.82A79.22,79.22,0,1,1,1087,194a79.21,79.21,0,0,1,79.21-79.22m0,154.57a75.19,75.19,0,1,0-75.19-75.19c-.16,41.38,33.65,75.19,75.19,75.19m0-155.57h0A80.22,80.22,0,1,0,1246.45,194a80.36,80.36,0,0,0-80.21-80.22Zm0,154.57a74.17,74.17,0,1,1,52.46-21.73,73.82,73.82,0,0,1-52.46,21.73Z"/><path class="cls-1" d="M1289.08,73.13l2.9,2.73-46.85,47.82-.81.81.81.8a104.83,104.83,0,0,1-1.77,139.27l-.81.8.81.81,48,47.33-2.9,2.9-47.66-47.17-.8-.81-.81.81a103.76,103.76,0,0,1-72.6,29.62h-.43a104.81,104.81,0,0,1-.24-209.62h.25a104.83,104.83,0,0,1,75,31.55l.8.81.81-.81,46.36-47.65M1166.24,295c55.38,0,100.62-45.24,100.62-100.79A100.81,100.81,0,0,0,1166.24,93.41c-55.39,0-100.63,45.25-100.63,100.79A100.81,100.81,0,0,0,1166.24,295M1289.05,71.72l-.68.71L1242,120.08l-.09.09-.1-.1a105.85,105.85,0,0,0-75.66-31.84h-.26a105.81,105.81,0,0,0,.25,211.62h.43a104.18,104.18,0,0,0,73.3-29.91l.11-.1.09.1,47.66,47.17.71.7.7-.7,2.9-2.9.71-.72-.71-.7-48-47.33-.09-.1.09-.09a105.85,105.85,0,0,0,1.82-140.63l0,0,0,0-.09-.1.09-.1,46.86-47.83.72-.73-.75-.7-2.89-2.73-.72-.68ZM1166.24,294a99.81,99.81,0,0,1-99.63-99.79c0-55,44.69-99.79,99.63-99.79a99.8,99.8,0,0,1,99.62,99.79c0,55-44.69,99.79-99.62,99.79Z"/><polygon class="cls-6" points="968.21 199.59 969.33 198.54 969.33 344.09 973.36 344.09 973.36 199.03 975.45 201.12 987.2 212.7 990.1 209.81 974.97 195 974.16 194.19 975.13 193.39 990.26 178.74 987.53 175.84 975.61 187.43 973.52 189.37 973.52 74.41 969.49 74.41 969.49 189.37 968.21 188.18 968.21 194.04 968.21 199.59"/></g><g id="Biblioteca"><polygon points="775.81 381.36 775.16 196.06 709.96 196.71 643.63 261.33 643.88 261.56 590.23 313.74 590.23 381.49 775.77 381.49 773.59 379.35 775.81 381.36"/></g><g id="Conmemora_Radio" data-name="Conmemora Radio"><polygon points="497.93 238.15 580.36 320.58 580.36 351.6 476.97 351.6 476.97 381.89 447.92 381.49 401.3 334.78 424.79 311.19 467.71 353.08 470.43 350.02 428.05 307.87 497.93 238.15"/></g><g id="Taller_de_Creación" data-name="Taller de Creación"><polygon points="776.29 5.62 585.42 5.62 585.42 37.97 580.36 37.97 477.67 37.97 477.67 5.62 448.61 5.62 400.59 53.55 425.15 78.12 467.69 35.38 471.14 38.77 428.75 80.92 497.93 149.36 580.36 66.93 581.93 66.48 583.48 66.85 585.42 68.55 648.48 131.47 648.51 131.44 710.28 192.1 776.62 191.46 775.81 99.05 776.29 5.62"/></g><g id="Casa"><polyline points="873.54 102.11 780.16 194.04 873.86 286.94 968.21 194.04 873.54 102.11"/></g></svg>