<?xml version="1.0" encoding="utf-8"?>
<!-- Generator: Adobe Illustrator 22.0.1, SVG Export Plug-In . SVG Version: 6.00 Build 0)  -->
<svg version="1.1" id="level_one" xmlns="http://www.w3.org/2000/svg" xmlns:xlink="http://www.w3.org/1999/xlink" x="0px" y="0px"
	 viewBox="0 0 1366 387.6" style="enable-background:new 0 0 1366 387.6;" xml:space="preserve">
<style type="text/css">
	.st0{fill:#CCCCCC;}
	.st1{fill:none;}
	.st2{fill:none;stroke:#000000;stroke-miterlimit:10;}
	.st3{fill:#FFFFFF;stroke:#000000;stroke-miterlimit:10;}
	.st4{opacity:0.93;fill:none;stroke:#CCCCCC;stroke-miterlimit:10;enable-background:new    ;}
	.st5{fill:none;stroke:#CCCCCC;stroke-miterlimit:10;}
	.st6{fill:#FFFFFF;}
</style>
<g id="planta-uno">
	<g id="Teatro">
		<rect x="5.1" y="5.4" width="207.6" height="376.2"/>
	</g>
	<g id="Putumayo">
		<polygon points="779.2,198.7 870.2,288.9 779.8,379.8 		"/>
	</g>
	<g id="Chibolo">
		<polygon points="775.2,195.8 710,196.4 647.3,257.8 775.8,380 		"/>
	</g>
	<g id="Cesar_-_Catatumbo">
		<polygon points="771.6,381.5 644.4,260.5 586.1,317.8 586.1,381.5 		"/>
	</g>
	<g id="Foro">
		<polygon points="706.6,194 582,71.7 459.6,194 582,316.4 		"/>
	</g>
	<g id="Urabá">
		<polygon points="973.4,199 973.4,344.1 973.3,344.1 973.3,370 973.3,372.8 973.3,381.3 1159.8,381.5 		"/>
	</g>
	<g id="Comuna_13">
		<polygon points="969.3,344.1 969.3,342.9 969.3,198.5 784,381.5 969.3,381.5 969.3,372.8 969.3,370 		"/>
	</g>
	<g id="Magdalena_Medio">
		<polygon points="973.5,5.6 973.5,189.4 1162.4,5.6 		"/>
	</g>
	<g id="Ciénagas">
		<polygon points="969.5,5.6 969.5,189.4 780.4,5.6 		"/>
	</g>
	<g id="Buenaventura">
		<polygon points="776.3,7.1 870.5,99.1 776.6,191.5 710.3,192.1 651.2,134.1 		"/>
	</g>
	<g id="Atrato">
		<polygon points="772,5.6 648.5,131.5 585.4,68.6 585.4,5.6 		"/>
	</g>
	<g id="Umbral_de_Ingreso">
		<polygon points="497.9,238.1 580.4,320.6 580.4,351.6 477,351.6 477,381.9 447.9,381.5 401.3,334.8 424.8,311.2 467.7,353.1 
			470.4,350 428,307.9 		"/>
	</g>
	<g id="Umbral_de_Salida">
		<polygon points="497.9,149.4 580.4,66.9 580.4,38 477.7,38 477.7,5.6 448.6,5.6 400.6,53.5 425.1,78.1 467.7,35.4 471.1,38.8 
			428.8,80.9 		"/>
	</g>
	<g id="Vestíbulo">
		<polygon points="494.7,153.1 397.7,56.5 351.2,102.8 351.2,284.6 398.4,331.9 495.2,235.4 454.1,194.5 454.1,193.6 		"/>
	</g>
	<g id="Cuerpos_Biográficos">
		<path d="M974.2,194.2l193-187.7l43-0.8c0,0,118.3,21.1,146.5,147.5s-68.6,194.6-78.6,201s-44,23.2-60.2,27.3h-52.6L974.2,194.2z"
			/>
	</g>
	<g id="Mapa">
		<g id="Group_120">
			<path id="Path_50" d="M476.3,38h109.1v-1.8H476.3V38z"/>
		</g>
		<g id="Group_121">
			<rect id="Rectangle_89" x="479.8" y="7.1" width="1.3" height="29.2"/>
		</g>
		<g id="Group_121-2">
			<rect id="Rectangle_89-2" x="475.7" y="7.1" width="2" height="30.9"/>
		</g>
		<g id="Group_122">
			<rect id="Rectangle_90" x="484.5" y="7.1" width="1.3" height="29.2"/>
		</g>
		<g id="Group_123">
			<rect id="Rectangle_91" x="489.5" y="7.1" width="1.3" height="29.2"/>
		</g>
		<g id="Group_124">
			<rect id="Rectangle_92" x="494.2" y="7.1" width="1.3" height="29.2"/>
		</g>
		<g id="Group_125">
			<rect id="Rectangle_93" x="499" y="7.1" width="1.3" height="29.2"/>
		</g>
		<g id="Group_126">
			<rect id="Rectangle_94" x="503.7" y="7.1" width="1.3" height="29.2"/>
		</g>
		<g id="Group_127">
			<rect id="Rectangle_95" x="508.5" y="7.1" width="1.3" height="29.2"/>
		</g>
		<g id="Group_128">
			<rect id="Rectangle_96" x="513.6" y="7.1" width="1.3" height="29.2"/>
		</g>
		<g id="Group_129">
			<rect id="Rectangle_97" x="518.3" y="7.1" width="1.3" height="29.2"/>
		</g>
		<g id="Group_130">
			<rect id="Rectangle_98" x="523.1" y="7.1" width="1.3" height="29.2"/>
		</g>
		<g id="Group_131">
			<rect id="Rectangle_99" x="527.8" y="7.1" width="1.3" height="29.2"/>
		</g>
		<g id="Group_132">
			<rect id="Rectangle_100" x="532.6" y="7.1" width="1.3" height="29.2"/>
		</g>
		<g id="Group_133">
			<rect id="Rectangle_101" x="537.4" y="7.1" width="1.3" height="29.2"/>
		</g>
		<g id="Group_134">
			<rect id="Rectangle_102" x="542.1" y="7.1" width="1.3" height="29.2"/>
		</g>
		<g id="Group_135">
			<rect id="Rectangle_103" x="546.9" y="7.1" width="1.3" height="29.2"/>
		</g>
		<g id="Group_136">
			<rect id="Rectangle_104" x="551.8" y="7.1" width="1.3" height="29.2"/>
		</g>
		<g id="Group_137">
			<rect id="Rectangle_105" x="556.5" y="7.1" width="1.3" height="29.2"/>
		</g>
		<g id="Group_138">
			<rect id="Rectangle_106" x="561.3" y="7.1" width="1.3" height="29.2"/>
		</g>
		<g id="Group_139">
			<rect id="Rectangle_107" x="566.1" y="7.1" width="1.3" height="29.2"/>
		</g>
		<g id="Group_140">
			<rect id="Rectangle_108" x="571.2" y="7.1" width="1.3" height="29.2"/>
		</g>
		<g id="Group_141">
			<rect id="Rectangle_109" x="575.9" y="7.1" width="1.3" height="29.2"/>
		</g>
		<g id="Group_142">
			<rect id="Rectangle_110" x="580.7" y="7.1" width="1.3" height="29.2"/>
		</g>
		<g id="Group_171">
			<rect id="Rectangle_138" x="585" y="6.8" width="1.7" height="31.2"/>
		</g>
		<g id="Group_120-2">
			<path id="Path_50-2" d="M586.1,350.7H477v1.8h109.1V350.7z"/>
		</g>
		<g id="Group_121-3">
			<rect id="Rectangle_89-3" x="581.3" y="352.5" width="1.3" height="29.2"/>
		</g>
		<g id="Group_121-4">
			<rect id="Rectangle_89-4" x="584.7" y="350.7" width="2" height="30.9"/>
		</g>
		<g id="Group_122-2">
			<rect id="Rectangle_90-2" x="576.6" y="352.5" width="1.3" height="29.2"/>
		</g>
		<g id="Group_123-2">
			<rect id="Rectangle_91-2" x="571.7" y="352.5" width="1.3" height="29.2"/>
		</g>
		<g id="Group_124-2">
			<rect id="Rectangle_92-2" x="566.9" y="352.5" width="1.3" height="29.2"/>
		</g>
		<g id="Group_125-2">
			<rect id="Rectangle_93-2" x="562.1" y="352.5" width="1.3" height="29.2"/>
		</g>
		<g id="Group_126-2">
			<rect id="Rectangle_94-2" x="557.4" y="352.5" width="1.3" height="29.2"/>
		</g>
		<g id="Group_127-2">
			<rect id="Rectangle_95-2" x="552.6" y="352.5" width="1.3" height="29.2"/>
		</g>
		<g id="Group_128-2">
			<rect id="Rectangle_96-2" x="547.5" y="352.5" width="1.3" height="29.2"/>
		</g>
		<g id="Group_129-2">
			<rect id="Rectangle_97-2" x="542.8" y="352.5" width="1.3" height="29.2"/>
		</g>
		<g id="Group_130-2">
			<rect id="Rectangle_98-2" x="538" y="352.5" width="1.3" height="29.2"/>
		</g>
		<g id="Group_131-2">
			<rect id="Rectangle_99-2" x="533.3" y="352.5" width="1.3" height="29.2"/>
		</g>
		<g id="Group_132-2">
			<rect id="Rectangle_100-2" x="528.5" y="352.5" width="1.3" height="29.2"/>
		</g>
		<g id="Group_133-2">
			<rect id="Rectangle_101-2" x="523.8" y="352.5" width="1.3" height="29.2"/>
		</g>
		<g id="Group_134-2">
			<rect id="Rectangle_102-2" x="519" y="352.5" width="1.3" height="29.2"/>
		</g>
		<g id="Group_135-2">
			<rect id="Rectangle_103-2" x="514.2" y="352.5" width="1.3" height="29.2"/>
		</g>
		<g id="Group_136-2">
			<rect id="Rectangle_104-2" x="509.3" y="352.5" width="1.3" height="29.2"/>
		</g>
		<g id="Group_137-2">
			<rect id="Rectangle_105-2" x="504.6" y="352.5" width="1.3" height="29.2"/>
		</g>
		<g id="Group_138-2">
			<rect id="Rectangle_106-2" x="499.8" y="352.5" width="1.3" height="29.2"/>
		</g>
		<g id="Group_139-2">
			<rect id="Rectangle_107-2" x="495" y="352.5" width="1.3" height="29.2"/>
		</g>
		<g id="Group_140-2">
			<rect id="Rectangle_108-2" x="490" y="352.5" width="1.3" height="29.2"/>
		</g>
		<g id="Group_141-2">
			<rect id="Rectangle_109-2" x="485.2" y="352.5" width="1.3" height="29.2"/>
		</g>
		<g id="Group_142-2">
			<rect id="Rectangle_110-2" x="480.5" y="352.5" width="1.3" height="29.2"/>
		</g>
		<g id="Group_171-2">
			<rect id="Rectangle_138-2" x="475.7" y="350.7" width="1.7" height="31.2"/>
		</g>
		<path d="M216.8,1.4v384.4H1V1.4H216.8 M5.1,381.7h207.6V5.5H5.1V381.7 M217.8,0.4H0v386.4h217.8V0.4z M6.1,6.5h205.6v374.2H6.1
			V6.5z"/>
		<path d="M446.5,1.4l0.1,0.1H1365v151.6h-4.1V5.6h-134.6c68.7,20.6,120.4,77.3,134.6,147.5h-4.2C1341.7,80.4,1285.6,23,1213.2,6.3
			l0.2-0.7h-47l0.8,0.8l-158.4,153.9l-2.7-2.9L1162.4,5.6H973.5v43h-4v-43H780.4l2.1,2.1l-2.9,2.9l-2.6-2.6l-0.8-1l-0.8,0.8
			l-108,110.3l-2.9-2.9L772,5.6H448.6l-48,47.9l23.8,23.8l0.8,0.8l0.8-0.8l41.7-41.5l2.9,2.9L429,80.2l-0.8,0.8l0.8,0.8l67.8,67.6
			l0.8,0.8l0.8-0.8l81.9-81.9c0.4-0.4,0.9-0.6,1.5-0.6c0.6,0,1.1,0.2,1.5,0.6L710,191.8l0.3,0.3h20.3v4h-20.3l-0.3,0.3L648.3,257
			l-1,0.8l1,0.8l20.9,19.8l-2.7,2.9l-21.2-20l-0.8-0.8l-0.8,0.8l-60.4,59.2c-0.4,0.4-0.9,0.6-1.5,0.6c-0.6,0-1.1-0.2-1.5-0.6
			L498.7,239l-0.8-0.8l-0.8,0.8l-68.3,68.1l-0.8,0.8l0.8,0.8l41.5,41.5l-2.9,2.9l-41.4-41.4l-0.8-0.8l-0.8,0.8l-23.2,23l46.6,46.7
			h323.7l-86.3-82.3l2.6-2.9l0,0l85.8,81.8l2.1,1.9v-19.2h4v19l2.1-2.1l33.5-33l2.9,2.9L784,381.5h185.8V370h4v11.5h185.9
			L1006,230.9l2.7-2.9l0,0l156.7,153.5h52.6c72.3-18.4,127.6-78.5,140.1-152.2h6.9v156.3h-147.1c-1.2,0.3-2.3,0.6-3.5,0.8l-0.2-0.8
			h-767l-0.7,0.7l-0.7-0.7h-98.6v-98.8l-0.1-0.1l0.1-0.1v-57.4h4.1v55.3l47.2,47.3l96-95.7l0.8-0.8l-0.8-0.8l-39.1-39.1
			c-0.4-0.4-0.6-0.9-0.6-1.4c0-0.6,0.2-1.1,0.6-1.4l38.6-38.6l0.8-0.8l-0.8-0.8l-96.2-95.9l-46.5,46.4v50.3h-4.1v-52.2l-0.1-0.2
			l0.1-0.2V1.5h99.3L446.5,1.4 M351.2,96.5l91.1-90.9h-91.1V96.5 M582,316.4l0.8-0.8l123-120.8l0.8-0.8l-0.8-0.8l-123-120.8
			l-0.8-0.8l-0.8,0.8L460.4,193.2l-0.8,0.8l0.8,0.8l120.7,120.7L582,316.4 M1232,381.5h128.9v-145
			C1346.8,304.3,1297.7,359.5,1232,381.5 M351.2,381.5h90.4l-90.4-90.5V381.5 M446.5,0L446,0.5h-99.9v99.7l-0.6,0.6l0.6,0.6v52.8
			h6.1v-50.9l45.5-45.4l95.5,95.1l0.1,0.1l-0.1,0.1l-38.6,38.6c-0.7,0.5-1,1.4-1,2.2c0.1,0.8,0.4,1.5,0.9,2.1l39.1,39.2l0.1,0.1
			l-0.1,0.1l-95.3,95l-46.2-46.3v-55.9h-6.1v58l-0.5,0.5l0.5,0.5v99.3h99.1l0.5,0.4l0.7,0.7l0.7-0.7l0.5-0.4h765.8v0l0.2,1l1-0.2
			c1.1-0.3,2.3-0.5,3.4-0.8h148V228.3h-8.7l-0.1,0.8c-12.6,73.5-67.1,132.7-139.3,151.4h-52.1l-156.4-153.2l-0.4-0.4l-0.6,0.2
			l-0.2,0.1l-0.2,0.2l-2.7,2.9l-0.7,0.7l0.7,0.7l152,148.9H974.8V369h-6v11.5H786.5l32.5-32.1l0.7-0.7l-0.7-0.7l-2.9-2.9l-0.7-0.7
			l-0.7,0.7l-33.5,33l-0.4,0.4v-17.6h-6v17.9l-0.4-0.4l-85.8-81.8l-0.8-0.8l-0.7,0.9l-2.5,2.9l-0.6,0.7l0.7,0.7l84.5,80.6H448.3
			l-45.6-45.7l22.5-22.4l0.1-0.1l0.1,0.1l41.4,41.4l0.7,0.7l0.7-0.7l2.9-2.9l0.7-0.7l-0.7-0.7L429.6,308l-0.1-0.1l0.1-0.1l68.3-68.1
			l0.1-0.1l0.1,0.1l81.6,81.6c0.6,0.6,1.3,0.9,2.2,0.9c0.8,0,1.6-0.4,2.2-1l60.3-59.2l0.1-0.1l0.1,0.1l21.3,20l0.7,0.7l0.7-0.7
			l2.7-2.9l0.7-0.7l-0.7-0.7L649,257.9l0,0l0,0h0h0l0,0l0,0l61.7-60.5l0,0h20.9v-6h-20.8l0,0L584,66.8c-0.6-0.6-1.3-0.9-2.2-0.9
			c-0.8,0-1.6,0.4-2.2,1l-82,81.9l-0.1,0.1l-0.1-0.1l-67.8-67.6l-0.1-0.1l0.1-0.1l41.5-41.5l0.7-0.7l-0.7-0.7l-2.9-2.9l-0.7-0.7
			l-0.7,0.7l-41.7,41.5l-0.1,0.1l-0.1-0.1l-23-23l47-46.9h320.7l-105.8,108l-0.7,0.7l0.7,0.7l2.9,2.9l0.7,0.7l0.7-0.7l108-110.3l0,0
			l0.1,0.1l0,0l0,0l2.7,2.6l0.7,0.7l0.7-0.7l2.9-2.9l0.7-0.7L783.3,7l-0.4-0.4h185.6v43h6v-43h185.4l-154.5,150.2l-0.7,0.7l0.7,0.7
			l2.7,2.9l0.7,0.7l0.7-0.7L1167.9,7.2l0.6-0.6h43.7l-0.1,0.4l1,0.2c72,16.6,127.8,73.7,142.8,146.1l0.2,0.8h10V0.5H447.1L446.5,0z
			 M1232.8,6.7h127.1v137.5C1343.7,79.7,1295.8,27.8,1232.8,6.7L1232.8,6.7z M352.2,6.7h87.6l-87.6,87.4L352.2,6.7L352.2,6.7z
			 M461,194l0.1-0.1L581.9,73.2l0.1-0.1l0.1,0.1l123,120.8l0.1,0.1l-0.1,0.1l-123,120.7L582,315l-0.1-0.1L461.1,194.1L461,194
			L461,194z M1237.9,380.5c60.4-22.2,106.1-72.8,122-135.2v135.2L1237.9,380.5z M352.2,380.5v-87.1l87,87.1L352.2,380.5z"/>
		<path d="M1166.2,114.8c43.8,0,79.2,35.5,79.2,79.2c0,43.8-35.5,79.2-79.2,79.2c-43.8,0-79.2-35.5-79.2-79.2c0,0,0,0,0,0
			C1087,150.3,1122.5,114.8,1166.2,114.8C1166.2,114.8,1166.2,114.8,1166.2,114.8 M1166.2,269.4c41.5,0,75.2-33.7,75.2-75.2
			s-33.7-75.2-75.2-75.2c-41.5,0-75.2,33.7-75.2,75.2c0,0,0,0,0,0C1090.9,235.5,1124.7,269.4,1166.2,269.4 M1166.2,113.8
			L1166.2,113.8c-44.3,0-80.2,35.9-80.2,80.2c0,44.3,35.9,80.2,80.2,80.2c44.3,0,80.2-35.9,80.2-80.2
			C1246.4,149.7,1210.5,113.9,1166.2,113.8L1166.2,113.8z M1166.2,268.4c-41,0-74.2-33.2-74.2-74.2s33.2-74.2,74.2-74.2
			c41,0,74.2,33.2,74.2,74.2c0,19.7-7.8,38.5-21.7,52.4C1204.8,260.6,1185.9,268.4,1166.2,268.4z"/>
		<path d="M912.2,249.4l2.7,2.9l-39.6,38.8l-39,38.5l-2.9-2.9l36.7-36.2l0.8-0.8l-0.8-0.8l-36.7-36.4l2.9-2.9l36.7,36.6l0.8,0.8
			l0.8-0.8L912.2,249.4L912.2,249.4 M911.1,246.9v2.1L874,285.4l-0.1,0.1l-0.1-0.1l-36.7-36.5l-0.7-0.7l-0.7,0.7l-2.9,2.9l-0.7,0.7
			l0.7,0.7l36.7,36.4l0.1,0.1l-0.1,0.1L832.7,326l-0.7,0.7l0.7,0.7l2.9,2.9l0.7,0.7l0.7-0.7l39-38.5l39.6-38.8l0.7-0.7l-0.7-0.7
			l-2.7-2.9L911.1,246.9L911.1,246.9z"/>
		<path d="M1289.1,73.1l2.9,2.7l-46.8,47.8l-0.8,0.8l0.8,0.8c34.8,40.2,34,100-1.8,139.3l-0.8,0.8l0.8,0.8l48,47.3l-2.9,2.9
			l-47.7-47.2l-0.8-0.8l-0.8,0.8c-19.4,19-45.5,29.6-72.6,29.6h-0.4c-57.9,0.1-104.9-46.8-104.9-104.7
			c-0.1-57.9,46.8-104.9,104.7-104.9h0.2c28.2,0,55.3,11.4,75,31.6l0.8,0.8l0.8-0.8L1289.1,73.1 M1166.2,295
			c55.4,0,100.6-45.2,100.6-100.8c0-55.6-45-100.7-100.6-100.8c-55.4,0-100.6,45.2-100.6,100.8
			C1065.6,249.8,1110.6,294.9,1166.2,295 M1289.1,71.7l-0.7,0.7l-46.4,47.7l-0.1,0.1l-0.1-0.1c-19.9-20.4-47.2-31.8-75.7-31.8h-0.3
			c-58.4,0.1-105.8,47.5-105.7,105.9c0.1,58.4,47.5,105.8,105.9,105.7h0.4c27.4,0.1,53.8-10.7,73.3-29.9l0.1-0.1l0.1,0.1l47.7,47.2
			l0.7,0.7l0.7-0.7l2.9-2.9l0.7-0.7l-0.7-0.7l-48-47.3l-0.1-0.1l0.1-0.1c36.2-39.6,36.9-100.1,1.8-140.6l0,0l0,0l-0.1-0.1l0.1-0.1
			l46.9-47.8l0.7-0.7l-0.8-0.7l-2.9-2.7L1289.1,71.7L1289.1,71.7z M1166.2,294c-55-0.1-99.6-44.7-99.6-99.8
			c0-55,44.7-99.8,99.6-99.8c55,0.1,99.6,44.7,99.6,99.8C1265.9,249.2,1221.2,294,1166.2,294z"/>
		<path d="M801.2,25.5l74.2,72.4l91.9,89.5l2.1,1.9v-115h4v115l2.1-1.9l11.9-11.6l2.7,2.9l-15.1,14.6l-1,0.8l0.8,0.8l15.1,14.8
			l-2.9,2.9l-11.8-11.6l-2-2.1v145.1h-4V198.6l-2.1,1.9L933,234.1l-2.7-2.9l37.2-36.4l0.8-0.8l-1-0.8l-92.9-90.3l-0.8-0.8l-0.8,0.8
			L781,193.2l-0.8,0.8l0.8,0.8l36.7,36.4l-2.9,2.9l-33.5-33.3l-2.1-2.1v136.4h-4V195.8H756v-4h20.3l0.3-0.3l93.1-91.6l0.8-0.8
			l-0.8-0.8l-72-70L801.2,25.5L801.2,25.5 M799.1,22l1,3.1l-3,2.3l-0.9,0.7L797,29l72,70l0.1,0.1l-0.1,0.1l-93,91.6l0,0H755v6h19.2
			v139.3h6v-135l0.4,0.4l33.5,33.3l0.7,0.7l0.7-0.7l2.9-2.9l0.7-0.7l-0.7-0.7l-36.7-36.4l-0.1-0.1l0.1-0.1l91.8-90.3l0.1-0.1
			l0.1,0.1l92.9,90.4l0,0l0,0l0.1,0.1l0,0l-37.2,36.4l-0.7,0.7l0.7,0.7l2.7,2.9l0.7,0.7l0.7-0.7l34.3-33.6l0.4-0.4v144.3h6V201.4
			l0.4,0.4l11.8,11.6l0.7,0.7l0.7-0.7l2.9-2.9l0.7-0.7l-0.7-0.7l-15.1-14.8l0,0l0.1-0.1l0,0l0,0l15.2-14.7l0.7-0.7l-0.7-0.7
			l-2.7-2.9l-0.7-0.7l-0.7,0.7L975,186.7l-0.4,0.4V73.4h-6v113.7l-0.4-0.4l-92-89.5L802,24.8L799.1,22z"/>
	</g>
</g>
<g id="planta-dos">
	<g id="Biblioteca">
		<polygon points="775.8,381.4 775.2,196.1 710,196.7 643.6,261.3 643.9,261.6 590.2,313.7 590.2,381.5 775.8,381.5 773.6,379.4 		
			"/>
	</g>
	<g id="Conmemora_Radio">
		<polygon points="497.9,238.1 580.4,320.6 580.4,351.6 477,351.6 477,381.9 447.9,381.5 401.3,334.8 424.8,311.2 467.7,353.1 
			470.4,350 428,307.9 		"/>
	</g>
	<g id="Taller_de_Creación">
		<polygon points="776.3,5.6 585.4,5.6 585.4,38 580.4,38 477.7,38 477.7,5.6 448.6,5.6 400.6,53.5 425.1,78.1 467.7,35.4 
			471.1,38.8 428.8,80.9 497.9,149.4 580.4,66.9 581.9,66.5 583.5,66.8 585.4,68.6 648.5,131.5 648.5,131.4 710.3,192.1 
			776.6,191.5 775.8,99.1 		"/>
	</g>
	<g id="Casa">
		<polyline points="873.5,102.1 780.2,194 873.9,286.9 968.2,194 873.5,102.1 		"/>
	</g>
	<g id="Mapa_1_">
		<g id="Group_120_1_">
			<path id="Path_50_1_" d="M476.3,38h109.1v-1.8H476.3V38z"/>
		</g>
		<g id="Group_121_1_">
			<rect id="Rectangle_89_1_" x="479.8" y="7.1" width="1.3" height="29.2"/>
		</g>
		<g id="Group_121-2_1_">
			<rect id="Rectangle_89-2_1_" x="475.7" y="7.1" width="2" height="30.9"/>
		</g>
		<g id="Group_122_1_">
			<rect id="Rectangle_90_1_" x="484.5" y="7.1" width="1.3" height="29.2"/>
		</g>
		<g id="Group_123_1_">
			<rect id="Rectangle_91_1_" x="489.5" y="7.1" width="1.3" height="29.2"/>
		</g>
		<g id="Group_124_1_">
			<rect id="Rectangle_92_1_" x="494.2" y="7.1" width="1.3" height="29.2"/>
		</g>
		<g id="Group_125_1_">
			<rect id="Rectangle_93_1_" x="499" y="7.1" width="1.3" height="29.2"/>
		</g>
		<g id="Group_126_1_">
			<rect id="Rectangle_94_1_" x="503.7" y="7.1" width="1.3" height="29.2"/>
		</g>
		<g id="Group_127_1_">
			<rect id="Rectangle_95_1_" x="508.5" y="7.1" width="1.3" height="29.2"/>
		</g>
		<g id="Group_128_1_">
			<rect id="Rectangle_96_1_" x="513.6" y="7.1" width="1.3" height="29.2"/>
		</g>
		<g id="Group_129_1_">
			<rect id="Rectangle_97_1_" x="518.3" y="7.1" width="1.3" height="29.2"/>
		</g>
		<g id="Group_130_1_">
			<rect id="Rectangle_98_1_" x="523.1" y="7.1" width="1.3" height="29.2"/>
		</g>
		<g id="Group_131_1_">
			<rect id="Rectangle_99_1_" x="527.8" y="7.1" width="1.3" height="29.2"/>
		</g>
		<g id="Group_132_1_">
			<rect id="Rectangle_100_1_" x="532.6" y="7.1" width="1.3" height="29.2"/>
		</g>
		<g id="Group_133_1_">
			<rect id="Rectangle_101_1_" x="537.4" y="7.1" width="1.3" height="29.2"/>
		</g>
		<g id="Group_134_1_">
			<rect id="Rectangle_102_1_" x="542.1" y="7.1" width="1.3" height="29.2"/>
		</g>
		<g id="Group_135_1_">
			<rect id="Rectangle_103_1_" x="546.9" y="7.1" width="1.3" height="29.2"/>
		</g>
		<g id="Group_136_1_">
			<rect id="Rectangle_104_1_" x="551.8" y="7.1" width="1.3" height="29.2"/>
		</g>
		<g id="Group_137_1_">
			<rect id="Rectangle_105_1_" x="556.5" y="7.1" width="1.3" height="29.2"/>
		</g>
		<g id="Group_138_1_">
			<rect id="Rectangle_106_1_" x="561.3" y="7.1" width="1.3" height="29.2"/>
		</g>
		<g id="Group_139_1_">
			<rect id="Rectangle_107_1_" x="566.1" y="7.1" width="1.3" height="29.2"/>
		</g>
		<g id="Group_140_1_">
			<rect id="Rectangle_108_1_" x="571.2" y="7.1" width="1.3" height="29.2"/>
		</g>
		<g id="Group_141_1_">
			<rect id="Rectangle_109_1_" x="575.9" y="7.1" width="1.3" height="29.2"/>
		</g>
		<g id="Group_142_1_">
			<rect id="Rectangle_110_1_" x="580.7" y="7.1" width="1.3" height="29.2"/>
		</g>
		<g id="Group_171_1_">
			<rect id="Rectangle_138_1_" x="585" y="6.8" width="1.7" height="31.2"/>
		</g>
		<g id="Group_120-2_1_">
			<path id="Path_50-2_1_" d="M586.1,350.7H477v1.8h109.1V350.7z"/>
		</g>
		<g id="Group_121-3_1_">
			<rect id="Rectangle_89-3_1_" x="581.3" y="352.5" width="1.3" height="29.2"/>
		</g>
		<g id="Group_121-4_1_">
			<rect id="Rectangle_89-4_1_" x="584.7" y="350.7" width="2" height="30.9"/>
		</g>
		<g id="Group_122-2_1_">
			<rect id="Rectangle_90-2_1_" x="576.6" y="352.5" width="1.3" height="29.2"/>
		</g>
		<g id="Group_123-2_1_">
			<rect id="Rectangle_91-2_1_" x="571.7" y="352.5" width="1.3" height="29.2"/>
		</g>
		<g id="Group_124-2_1_">
			<rect id="Rectangle_92-2_1_" x="566.9" y="352.5" width="1.3" height="29.2"/>
		</g>
		<g id="Group_125-2_1_">
			<rect id="Rectangle_93-2_1_" x="562.1" y="352.5" width="1.3" height="29.2"/>
		</g>
		<g id="Group_126-2_1_">
			<rect id="Rectangle_94-2_1_" x="557.4" y="352.5" width="1.3" height="29.2"/>
		</g>
		<g id="Group_127-2_1_">
			<rect id="Rectangle_95-2_1_" x="552.6" y="352.5" width="1.3" height="29.2"/>
		</g>
		<g id="Group_128-2_1_">
			<rect id="Rectangle_96-2_1_" x="547.5" y="352.5" width="1.3" height="29.2"/>
		</g>
		<g id="Group_129-2_1_">
			<rect id="Rectangle_97-2_1_" x="542.8" y="352.5" width="1.3" height="29.2"/>
		</g>
		<g id="Group_130-2_1_">
			<rect id="Rectangle_98-2_1_" x="538" y="352.5" width="1.3" height="29.2"/>
		</g>
		<g id="Group_131-2_1_">
			<rect id="Rectangle_99-2_1_" x="533.3" y="352.5" width="1.3" height="29.2"/>
		</g>
		<g id="Group_132-2_1_">
			<rect id="Rectangle_100-2_1_" x="528.5" y="352.5" width="1.3" height="29.2"/>
		</g>
		<g id="Group_133-2_1_">
			<rect id="Rectangle_101-2_1_" x="523.8" y="352.5" width="1.3" height="29.2"/>
		</g>
		<g id="Group_134-2_1_">
			<rect id="Rectangle_102-2_1_" x="519" y="352.5" width="1.3" height="29.2"/>
		</g>
		<g id="Group_135-2_1_">
			<rect id="Rectangle_103-2_1_" x="514.2" y="352.5" width="1.3" height="29.2"/>
		</g>
		<g id="Group_136-2_1_">
			<rect id="Rectangle_104-2_1_" x="509.3" y="352.5" width="1.3" height="29.2"/>
		</g>
		<g id="Group_137-2_1_">
			<rect id="Rectangle_105-2_1_" x="504.6" y="352.5" width="1.3" height="29.2"/>
		</g>
		<g id="Group_138-2_1_">
			<rect id="Rectangle_106-2_1_" x="499.8" y="352.5" width="1.3" height="29.2"/>
		</g>
		<g id="Group_139-2_1_">
			<rect id="Rectangle_107-2_1_" x="495" y="352.5" width="1.3" height="29.2"/>
		</g>
		<g id="Group_140-2_1_">
			<rect id="Rectangle_108-2_1_" x="490" y="352.5" width="1.3" height="29.2"/>
		</g>
		<g id="Group_141-2_1_">
			<rect id="Rectangle_109-2_1_" x="485.2" y="352.5" width="1.3" height="29.2"/>
		</g>
		<g id="Group_142-2_1_">
			<rect id="Rectangle_110-2_1_" x="480.5" y="352.5" width="1.3" height="29.2"/>
		</g>
		<g id="Group_171-2_1_">
			<rect id="Rectangle_138-2_1_" x="475.7" y="350.7" width="1.7" height="31.2"/>
		</g>
		<path class="st0" d="M216.8,1.4v384.4H1V1.4H216.8 M5.1,381.7h207.6V5.5H5.1V381.7 M217.8,0.4H0v386.4h217.8V0.4z M6.1,6.5h205.6
			v374.2H6.1V6.5z"/>
		<path class="st1" d="M398.4,331.9l96-95.7l0.8-0.8l-0.8-0.8l-39.1-39.1c-0.4-0.4-0.6-0.9-0.6-1.4c0-0.6,0.2-1.1,0.6-1.4l38.6-38.6
			l0.8-0.8l-0.8-0.8l-96.2-95.9l-46.5,46.4v181.8L398.4,331.9z"/>
		<polygon class="st1" points="782.6,7.8 779.7,10.7 779.2,10.2 779.2,188.9 869.7,99.8 870.5,99.1 869.7,98.2 797.7,28.2 
			801.2,25.5 801.2,25.5 875.5,97.9 967.4,187.4 968.2,188.2 968.2,5.6 780.4,5.6 		"/>
		<polygon class="st1" points="351.2,5.6 351.2,96.5 442.3,5.6 		"/>
		<polygon class="st1" points="582,316.4 582.8,315.6 705.8,194.8 706.6,194 705.8,193.2 582.8,72.5 582,71.7 581.2,72.5 
			460.4,193.2 459.6,194 460.4,194.9 581.2,315.6 		"/>
		<polygon class="st1" points="351.2,381.5 441.6,381.5 351.2,290.9 		"/>
		<path class="st1" d="M933,234.1l-2.7-2.9l37.2-36.4l0.8-0.8l-1-0.8l-92.9-90.3l-0.8-0.8l-0.8,0.8L781,193.2l-0.8,0.8l0.8,0.8
			l36.7,36.4l-2.9,2.9l-33.5-33.3l-2.1-2.1v162.1h0.6v19l2.1-2.1l33.5-33l2.9,2.9L784,381.5h184.2V199.6l-1,0.9L933,234.1z
			 M875.3,291.1l-39,38.5l-2.9-2.9l36.7-36.2l0.8-0.8l-0.8-0.8l-36.7-36.4l2.9-2.9l36.7,36.6l0.8,0.8l0.8-0.8l37.5-36.7l0,0l2.7,2.9
			L875.3,291.1z"/>
		<path class="st1" d="M756,195.8v-4h19.2V8.2l-107.7,110l-2.9-2.9L772,5.6H448.6l-48,47.9l23.8,23.8l0.8,0.8l0.8-0.8l41.7-41.5
			l2.9,2.9L429,80.2l-0.8,0.8l0.8,0.8l67.8,67.6l0.8,0.8l0.8-0.8l81.9-81.9c0.4-0.4,0.9-0.6,1.5-0.6c0.6,0,1.1,0.2,1.5,0.6
			L710,191.8l0.3,0.3h20.3v4h-20.3l-0.3,0.3L648.3,257l-1,0.8l1,0.8l20.9,19.8l-2.7,2.9l-21.2-20l-0.8-0.8l-0.8,0.8l-60.4,59.2
			c-0.4,0.4-0.9,0.6-1.5,0.6c-0.6,0-1.1-0.2-1.5-0.6L498.7,239l-0.8-0.8l-0.8,0.8l-68.3,68.1l-0.8,0.8l0.8,0.8l41.5,41.5l-2.9,2.9
			l-41.4-41.4l-0.8-0.8l-0.8,0.8l-23.2,23l47.4,47.1h323.7l-87.1-82.7l2.6-2.9l0,0l85.8,81.8l1.4,1.3V195.8H756z"/>
		<path d="M446.5,1.4l0.1,0.1h521.5v4.1H780.4l2.1,2.1l-2.9,2.9l-0.5-0.5V5.5h-4v2.8l-107.7,110l-2.9-2.9L772,5.6H448.6l-48,47.9
			l23.8,23.8l0.8,0.8l0.8-0.8l41.7-41.5l2.9,2.9L429,80.2l-0.8,0.8l0.8,0.8l67.8,67.6l0.8,0.8l0.8-0.8l81.9-81.9
			c0.4-0.4,0.9-0.6,1.5-0.6c0.6,0,1.1,0.2,1.5,0.6L710,191.8l0.3,0.3h20.3v4h-20.3l-0.3,0.3L648.3,257l-1,0.8l1,0.8l20.9,19.8
			l-2.7,2.9l-21.2-20l-0.8-0.8l-0.8,0.8l-60.4,59.2c-0.4,0.4-0.9,0.6-1.5,0.6c-0.6,0-1.1-0.2-1.5-0.6L498.7,239l-0.8-0.8l-0.8,0.8
			l-68.3,68.1l-0.8,0.8l0.8,0.8l41.5,41.5l-2.9,2.9l-41.4-41.4l-0.8-0.8l-0.8,0.8l-23.2,23l47.4,47.1h323.7l-87.1-82.7l2.6-2.9l0,0
			l85.8,81.8l1.4,1.3v2.8h4v-21.4h0.6v19l2.1-2.1l33.5-33l2.9,2.9L784,381.5h184.2v4.1H447.1l-0.7,0.7l-0.7-0.7h-98.6v-98.8
			l-0.1-0.1l0.1-0.1V194h4.1v90.5l47.2,47.3l96-95.7l0.8-0.8l-0.8-0.8l-39.1-39.1c-0.4-0.4-0.6-0.9-0.6-1.4c0-0.6,0.2-1.1,0.6-1.4
			l38.6-38.5l0.8-0.8l-0.8-0.8l-96.2-95.9l-46.5,46.4V194h-4.1v-93.1l-0.1-0.2l0.1-0.2V1.5h99.3L446.5,1.4 M351.2,96.5l91.1-90.9
			h-91.1V96.5 M582,316.4l0.8-0.8l123-120.8l0.8-0.8l-0.8-0.8l-123-120.8l-0.8-0.8l-0.8,0.8L460.4,193.2l-0.8,0.8l0.8,0.8
			l120.7,120.7L582,316.4 M351.2,381.5h90.4l-90.4-90.5V381.5 M446.5,0L446,0.5h-99.9v99.7l-0.6,0.6l0.6,0.6v185l-0.5,0.5l0.5,0.5
			v99.3h99.1l0.5,0.4l0.7,0.7l0.7-0.7l0.5-0.4h521.6v-6.1H786.5l32.5-32.2l0.7-0.7l-0.7-0.7l-2.9-2.9l-0.7-0.7l-0.7,0.7l-33.5,33
			l-0.4,0.4v-17.6h-2.6v21.4h-2V379l-0.3-0.3l-1.4-1.3l-85.8-81.8l-0.8-0.8l-0.7,0.9l-2.5,2.9l-0.7,0.7l0.7,0.7l85.2,81H449.1
			l-46.4-46.1l22.5-22.3l0.1-0.1l0.1,0.1l41.4,41.4l0.7,0.7l0.7-0.7l2.9-2.9l0.7-0.7l-0.7-0.7L429.6,308l-0.1-0.1l0.1-0.1l68.3-68.1
			l0.1-0.1l0.1,0.1l81.6,81.6c0.6,0.6,1.3,0.9,2.2,0.9c0.8,0,1.6-0.4,2.2-1l60.3-59.2l0.1-0.1l0.1,0.1l21.3,20l0.7,0.7l0.7-0.7
			l2.7-2.9l0.7-0.7l-0.7-0.7L649,257.9l0,0l0,0h0h0l0,0l0,0l61.7-60.5l0,0h20.9v-6h-20.8l0,0L584,66.8c-0.6-0.6-1.3-0.9-2.2-0.9
			c-0.8,0-1.6,0.4-2.2,1l-82,81.9l-0.1,0.1l-0.1-0.1l-67.8-67.6l-0.1-0.1l0.1-0.1l41.5-41.5l0.7-0.7l-0.7-0.7l-2.9-2.9l-0.7-0.7
			l-0.7,0.7l-41.7,41.5l-0.1,0.1l-0.1-0.1l-23-23l47-46.9h320.7l-105.8,108l-0.7,0.7l0.7,0.7l2.9,2.9l0.7,0.7l0.7-0.7L775.9,9
			l0.3-0.3V6.5h2v4.1l0.3,0.3l0.5,0.5l0.7,0.7l0.7-0.7l2.9-2.9l0.7-0.7L783.3,7l-0.4-0.4h186.4V0.5H447.1L446.5,0z M352.2,6.6h87.6
			l-87.6,87.5V6.6z M352.2,103.3l45.5-45.4l95.5,95.1l0.1,0.1l-0.1,0.1l-38.6,38.6c-0.7,0.5-1,1.4-1,2.2c0.1,0.8,0.4,1.5,0.9,2.1
			l39.1,39.2l0.1,0.1l-0.1,0.1l-95.3,95l-46.2-46.3L352.2,103.3L352.2,103.3z M461,194l0.1-0.1L581.9,73.2l0.1-0.1l0.1,0.1
			l123,120.8l0.1,0.1l-0.1,0.1l-123,120.7L582,315l-0.1-0.1L461.1,194.1L461,194L461,194z M352.2,380.5v-87.1l87,87.1H352.2z"/>
		<path class="st0" d="M1217.7,385.6l-3.3,0.8l-0.2-0.8H1217.7 M1225.8,384.6H1213l0.2,1.2l0.2,0.8l0.2,1l1-0.2
			c1.1-0.2,2.2-0.5,3.3-0.8L1225.8,384.6L1225.8,384.6z"/>
		<polygon class="st2" points="912.2,249.4 874.7,286.1 873.9,286.9 873,286.1 836.3,249.6 833.5,252.5 870.2,288.9 871,289.7 
			870.2,290.5 833.5,326.7 836.3,329.6 875.3,291.1 914.9,252.3 912.2,249.4 		"/>
		<polygon class="st3" points="967.4,194.9 930.2,231.2 933,234.1 967.2,200.5 968.2,199.6 968.2,194 		"/>
		<polygon class="st3" points="875.5,97.9 801.2,25.5 801.2,25.5 797.7,28.2 869.7,98.2 870.5,99.1 869.7,99.8 779.2,188.9 
			779.2,10.2 777.1,8.1 776.3,7.1 775.5,7.9 775.2,8.2 775.2,191.8 756,191.8 756,195.8 775.2,195.8 775.2,379.4 775.8,380 
			775.8,360.8 779.2,360.8 779.2,198.7 781.3,200.8 814.8,234.1 817.7,231.2 781,194.9 780.2,194 781,193.2 872.7,102.9 
			873.5,102.1 874.3,102.9 967.2,193.2 968.2,194 968.2,188.2 967.4,187.4 		"/>
		<polygon class="st3" points="775.8,380 775.2,379.4 775.2,382.2 779.2,382.2 779.2,360.8 775.8,360.8 		"/>
		<polygon class="st3" points="776.3,7.1 777.1,8.1 779.2,10.2 779.2,5.5 775.2,5.5 775.2,8.2 775.5,7.9 		"/>
		<polygon class="st4" points="968.2,385.6 968.2,385.6 1214.2,385.6 1214.2,385.6 		"/>
		<path class="st4" d="M1226.3,5.6c68.7,20.6,120.4,77.3,134.6,147.5V5.6H1226.3z"/>
		<path class="st4" d="M1166.2,93.4c-55.4,0-100.6,45.2-100.6,100.8c0,55.6,45,100.7,100.6,100.8c55.4,0,100.6-45.2,100.6-100.8
			C1266.9,138.6,1221.8,93.5,1166.2,93.4z M1166.2,273.2c-43.8,0-79.2-35.5-79.2-79.2c0-43.8,35.5-79.2,79.2-79.2
			c43.7,0,79.2,35.4,79.2,79.2C1245.5,237.7,1210,273.2,1166.2,273.2C1166.3,273.2,1166.3,273.2,1166.2,273.2z"/>
		<path class="st4" d="M1166.2,119c-41.5,0-75.2,33.7-75.2,75.2c-0.2,41.4,33.7,75.2,75.2,75.2c41.5,0,75.2-33.7,75.2-75.2
			C1241.4,152.7,1207.8,119,1166.2,119z"/>
		<path class="st4" d="M1360.9,236.5c-14.1,67.8-63.2,123.1-128.9,145h128.9V236.5z"/>
		<path class="st0" d="M1365,1.5v151.6h-4.1V5.6h-134.6c68.7,20.6,120.4,77.3,134.6,147.5h-4.2C1341.7,80.4,1285.6,23,1213.2,6.3
			l0.2-0.7h-47l0.8,0.8l-158.4,153.9l-2.7-2.9L1162.4,5.6H973.5v43h-4v-43h-1.3V1.5H1365 M1366,0.5H967.2v6.1h1.3v43h6v-43h185.4
			l-154.5,150.2l-0.7,0.7l0.7,0.7l2.7,2.9l0.7,0.7l0.7-0.7L1167.9,7.2l0.6-0.6h43.7l-0.1,0.4l1,0.2c72,16.6,127.8,73.7,142.8,146.1
			l0.2,0.8h10V0.5z M1232.8,6.6h127.1v137.5C1343.7,79.7,1295.8,27.8,1232.8,6.6L1232.8,6.6z"/>
		<path class="st0" d="M1008.8,228l156.7,153.5h52.5c72.3-18.4,127.6-78.5,140.1-152.2h6.9v156.3h-147.1l-0.3,0.1h-3.4v-0.1h-246
			v-4.1h1.6V370h4v11.5h185.9L1006,230.9L1008.8,228L1008.8,228 M1232,381.5h128.9v-145C1346.8,304.3,1297.7,359.5,1232,381.5
			 M1009,226.9l-0.6,0.2l0,0l-0.2,0.1l-0.2,0.2l-2.7,2.9l-0.7,0.7l0.7,0.7l152,148.9H974.8V369h-6v11.5h-1.6v6.1h246.2v0.1h4.4h0.1
			h0.1h148V228.3h-8.7l-0.1,0.8c-12.6,73.5-67.1,132.7-139.3,151.4h-52.1l-156.4-153.2L1009,226.9L1009,226.9z M1237.9,380.5
			c60.4-22.2,106.1-72.8,122-135.2v135.2H1237.9z"/>
		<path class="st0" d="M1166.2,114.8c43.8,0,79.2,35.5,79.2,79.2c0,43.8-35.5,79.2-79.2,79.2c-43.8,0-79.2-35.5-79.2-79.2
			c0,0,0,0,0,0C1087,150.3,1122.5,114.8,1166.2,114.8C1166.2,114.8,1166.2,114.8,1166.2,114.8 M1166.2,269.4
			c41.5,0,75.2-33.7,75.2-75.2s-33.7-75.2-75.2-75.2c-41.5,0-75.2,33.7-75.2,75.2c0,0,0,0,0,0
			C1090.9,235.5,1124.7,269.4,1166.2,269.4 M1166.2,113.8L1166.2,113.8c-44.3,0-80.2,35.9-80.2,80.2c0,44.3,35.9,80.2,80.2,80.2
			c44.3,0,80.2-35.9,80.2-80.2C1246.4,149.7,1210.5,113.9,1166.2,113.8L1166.2,113.8z M1166.2,268.4c-41,0-74.2-33.2-74.2-74.2
			s33.2-74.2,74.2-74.2c41,0,74.2,33.2,74.2,74.2c0,19.7-7.8,38.5-21.7,52.4C1204.8,260.6,1185.9,268.4,1166.2,268.4z"/>
		<path class="st0" d="M1289.1,73.1l2.9,2.7l-46.8,47.8l-0.8,0.8l0.8,0.8c34.8,40.2,34,100-1.8,139.3l-0.8,0.8l0.8,0.8l48,47.3
			l-2.9,2.9l-47.7-47.2l-0.8-0.8l-0.8,0.8c-19.4,19-45.5,29.6-72.6,29.6h-0.4c-57.9,0.1-104.9-46.8-104.9-104.7
			c-0.1-57.9,46.8-104.9,104.7-104.9h0.2c28.2,0,55.3,11.4,75,31.6l0.8,0.8l0.8-0.8L1289.1,73.1 M1166.2,295
			c55.4,0,100.6-45.2,100.6-100.8c0-55.6-45-100.7-100.6-100.8c-55.4,0-100.6,45.2-100.6,100.8
			C1065.6,249.8,1110.6,294.9,1166.2,295 M1289.1,71.7l-0.7,0.7l-46.4,47.7l-0.1,0.1l-0.1-0.1c-19.9-20.4-47.2-31.8-75.7-31.8h-0.3
			c-58.4,0.1-105.8,47.5-105.7,105.9c0.1,58.4,47.5,105.8,105.9,105.7h0.4c27.4,0.1,53.8-10.7,73.3-29.9l0.1-0.1l0.1,0.1l47.7,47.2
			l0.7,0.7l0.7-0.7l2.9-2.9l0.7-0.7l-0.7-0.7l-48-47.3l-0.1-0.1l0.1-0.1c36.2-39.6,36.9-100.1,1.8-140.6l0,0l0,0l-0.1-0.1l0.1-0.1
			l46.9-47.8l0.7-0.7l-0.8-0.7l-2.9-2.7L1289.1,71.7L1289.1,71.7z M1166.2,294c-55-0.1-99.6-44.7-99.6-99.8
			c0-55,44.7-99.8,99.6-99.8c55,0.1,99.6,44.7,99.6,99.8C1265.9,249.2,1221.2,294,1166.2,294z"/>
		<polygon class="st5" points="968.2,199.6 969.3,198.5 969.3,344.1 973.4,344.1 973.4,199 975.5,201.1 987.2,212.7 990.1,209.8 
			975,195 974.2,194.2 975.1,193.4 990.3,178.7 987.5,175.8 975.6,187.4 973.5,189.4 973.5,74.4 969.5,74.4 969.5,189.4 
			968.2,188.2 968.2,194 		"/>
	</g>
</g>
<g id="indicaciones">
	<g>
		<path d="M240.7,47.8l-0.5-1.5c0,0,0-0.1-0.1-0.1h-3.8c0,0-0.1,0-0.1,0.1l-0.5,1.5c0,0.1-0.1,0.2-0.2,0.2h-1
			c-0.2,0-0.2-0.1-0.2-0.2l3-9.2c0-0.1,0.1-0.2,0.2-0.2h1.3c0.1,0,0.2,0.1,0.2,0.2l3,9.2c0,0,0,0,0,0.1c0,0.1-0.1,0.2-0.2,0.2h-1
			C240.8,48,240.8,47.9,240.7,47.8z M236.7,45.2h3.1c0.1,0,0.1,0,0.1-0.1l-1.6-5.1c0,0,0-0.1,0-0.1c0,0,0,0,0,0.1L236.7,45.2
			C236.6,45.1,236.6,45.2,236.7,45.2z"/>
		<path d="M244.7,47.8l-2.2-6.6c0,0,0,0,0-0.1c0-0.1,0.1-0.2,0.2-0.2h1c0.1,0,0.1,0,0.2,0c0,0,0.1,0.1,0.1,0.1l1.5,4.9
			c0,0,0,0.1,0,0c0,0,0,0,0-0.1l1.5-4.9c0-0.1,0-0.1,0.1-0.1c0,0,0.1,0,0.2,0l1,0c0.1,0,0.1,0,0.2,0.1c0,0,0,0.1,0,0.2l-2.2,6.6
			c0,0.1-0.1,0.2-0.2,0.2h-1C244.8,48,244.7,47.9,244.7,47.8z"/>
		<path d="M249.4,47.7c-0.2-0.2-0.3-0.4-0.3-0.7c0-0.3,0.1-0.5,0.3-0.7c0.2-0.2,0.4-0.3,0.7-0.3c0.3,0,0.5,0.1,0.7,0.3
			c0.2,0.2,0.3,0.4,0.3,0.7c0,0.3-0.1,0.5-0.3,0.7c-0.2,0.2-0.4,0.3-0.7,0.3C249.8,48,249.6,47.9,249.4,47.7z"/>
		<path d="M255.9,47.9c0,0-0.1-0.1-0.1-0.2v-9.2c0-0.1,0-0.1,0.1-0.2c0,0,0.1-0.1,0.2-0.1h0.9c0.1,0,0.1,0,0.2,0.1
			c0,0,0.1,0.1,0.1,0.2v8.2c0,0,0,0.1,0.1,0.1h4.7c0.1,0,0.1,0,0.2,0.1s0.1,0.1,0.1,0.2v0.7c0,0.1,0,0.1-0.1,0.2s-0.1,0.1-0.2,0.1
			H256C256,48,255.9,48,255.9,47.9z"/>
		<path d="M267.5,41.2c0.4,0.2,0.7,0.5,1,0.8s0.3,0.8,0.3,1.2v4.6c0,0.1,0,0.1-0.1,0.2s-0.1,0.1-0.2,0.1h-0.9c-0.1,0-0.1,0-0.2-0.1
			s-0.1-0.1-0.1-0.2v-0.4c0,0,0,0,0-0.1c0,0,0,0-0.1,0c-0.3,0.2-0.6,0.4-0.9,0.5c-0.4,0.1-0.7,0.2-1.1,0.2c-0.7,0-1.2-0.2-1.6-0.5
			c-0.4-0.3-0.6-0.9-0.6-1.6c0-0.7,0.2-1.3,0.7-1.7c0.5-0.4,1.2-0.6,2.1-0.6h1.5c0,0,0.1,0,0.1-0.1v-0.4c0-0.4-0.1-0.7-0.4-0.9
			c-0.2-0.2-0.6-0.3-1.1-0.3c-0.4,0-0.7,0.1-0.9,0.2c-0.2,0.1-0.4,0.3-0.5,0.6c0,0.1-0.1,0.2-0.2,0.2l-1-0.1c-0.1,0-0.1,0-0.2-0.1
			c0,0-0.1-0.1,0-0.1c0.1-0.5,0.4-0.9,0.9-1.3s1.1-0.5,1.9-0.5C266.6,40.9,267.1,41,267.5,41.2z M267,46.6c0.4-0.3,0.5-0.6,0.5-1
			v-0.8c0,0,0-0.1-0.1-0.1h-1.3c-0.5,0-1,0.1-1.3,0.3c-0.3,0.2-0.5,0.5-0.5,0.9c0,0.3,0.1,0.6,0.4,0.8c0.2,0.2,0.6,0.3,0.9,0.3
			C266.2,47,266.6,46.8,267,46.6z"/>
		<path d="M279.8,39.5c0,0-0.1,0.1-0.2,0.1h-4.8c0,0-0.1,0-0.1,0.1v2.9c0,0,0,0.1,0.1,0.1h3.3c0.1,0,0.1,0,0.2,0.1
			c0,0,0.1,0.1,0.1,0.2v0.7c0,0.1,0,0.1-0.1,0.2s-0.1,0.1-0.2,0.1h-3.3c0,0-0.1,0-0.1,0.1v3c0,0,0,0.1,0.1,0.1h4.8
			c0.1,0,0.1,0,0.2,0.1s0.1,0.1,0.1,0.2v0.7c0,0.1,0,0.1-0.1,0.2s-0.1,0.1-0.2,0.1h-6c-0.1,0-0.1,0-0.2-0.1c0,0-0.1-0.1-0.1-0.2
			v-9.2c0-0.1,0-0.1,0.1-0.2c0,0,0.1-0.1,0.2-0.1h6c0.1,0,0.1,0,0.2,0.1c0,0,0.1,0.1,0.1,0.2v0.7C279.9,39.4,279.9,39.4,279.8,39.5z
			"/>
		<path d="M282.6,47.8c-0.4-0.2-0.7-0.4-1-0.7c-0.2-0.3-0.3-0.6-0.3-1v-0.1c0-0.1,0-0.1,0.1-0.2s0.1-0.1,0.2-0.1h0.9
			c0.1,0,0.1,0,0.2,0s0.1,0,0.1,0.1v0.1c0,0.3,0.1,0.5,0.4,0.7c0.3,0.2,0.6,0.3,1,0.3s0.8-0.1,1-0.3c0.3-0.2,0.4-0.4,0.4-0.7
			c0-0.3-0.1-0.5-0.4-0.6s-0.6-0.3-1.2-0.4c-0.5-0.1-1-0.3-1.3-0.4c-0.4-0.2-0.6-0.4-0.9-0.6c-0.2-0.3-0.4-0.6-0.4-1.1
			c0-0.6,0.2-1.1,0.7-1.5c0.5-0.4,1.1-0.5,1.9-0.5c0.5,0,1,0.1,1.4,0.3c0.4,0.2,0.7,0.4,0.9,0.7c0.2,0.3,0.3,0.6,0.3,1
			c0,0.1,0,0.1-0.1,0.1c0,0-0.1,0-0.2,0h-0.8c-0.1,0-0.1,0-0.2,0c0,0-0.1,0-0.1-0.1v-0.1c0-0.3-0.1-0.5-0.4-0.7
			c-0.3-0.2-0.6-0.3-1.1-0.3c-0.4,0-0.7,0.1-1,0.2c-0.3,0.2-0.4,0.4-0.4,0.6s0.1,0.5,0.4,0.6c0.2,0.1,0.6,0.3,1.2,0.4
			c0.5,0.1,1,0.3,1.3,0.4s0.7,0.4,0.9,0.6c0.2,0.3,0.4,0.6,0.4,1.1c0,0.6-0.2,1.1-0.7,1.5c-0.5,0.4-1.1,0.5-2,0.5
			C283.5,48.1,283,48,282.6,47.8z"/>
		<path d="M294.1,44.5c0,0.7-0.1,1.2-0.2,1.7c-0.2,0.6-0.5,1.1-1,1.4s-1,0.5-1.7,0.5c-0.3,0-0.6-0.1-0.9-0.2
			c-0.3-0.1-0.5-0.3-0.7-0.5c0,0,0,0-0.1,0c0,0,0,0,0,0v3c0,0.1,0,0.1-0.1,0.2s-0.1,0.1-0.2,0.1h-0.9c-0.1,0-0.1,0-0.2-0.1
			s-0.1-0.1-0.1-0.2v-9.2c0-0.1,0-0.1,0.1-0.2s0.1-0.1,0.2-0.1h0.9c0.1,0,0.1,0,0.2,0.1s0.1,0.1,0.1,0.2v0.4c0,0,0,0,0,0.1
			c0,0,0,0,0.1,0c0.2-0.2,0.4-0.4,0.7-0.5c0.3-0.1,0.6-0.2,0.9-0.2c0.7,0,1.2,0.2,1.6,0.5s0.8,0.8,1,1.4
			C294.1,43.2,294.1,43.8,294.1,44.5z M292.8,44.5c0-0.7-0.1-1.3-0.3-1.7c-0.3-0.5-0.7-0.8-1.3-0.8c-0.5,0-0.9,0.2-1.2,0.7
			c-0.2,0.4-0.3,1-0.3,1.7c0,0.8,0.1,1.3,0.4,1.8c0.3,0.5,0.7,0.7,1.2,0.7c0.5,0,0.9-0.2,1.2-0.7C292.7,45.8,292.8,45.2,292.8,44.5z
			"/>
		<path d="M300.3,46.1c0-0.1,0.1-0.1,0.2-0.1c0,0,0.1,0,0.1,0l0.6,0.3c0.1,0,0.1,0.1,0.1,0.2l0,0.1c-0.2,0.4-0.6,0.8-1,1.1
			c-0.5,0.3-1,0.4-1.6,0.4c-0.6,0-1.2-0.1-1.6-0.4c-0.4-0.3-0.8-0.7-1-1.2c-0.2-0.6-0.3-1.2-0.3-2c0-0.7,0-1.2,0.2-1.5
			c0.2-0.6,0.5-1.1,1-1.5c0.5-0.4,1.1-0.5,1.8-0.5c0.9,0,1.5,0.2,2,0.7c0.5,0.5,0.8,1.1,0.9,2c0,0.3,0.1,0.8,0.1,1.2
			c0,0.1-0.1,0.2-0.2,0.2H297c0,0-0.1,0-0.1,0.1c0,0.3,0.1,0.6,0.1,0.7c0.1,0.4,0.3,0.7,0.6,0.9c0.3,0.2,0.7,0.3,1.1,0.3
			C299.5,47,300,46.7,300.3,46.1z M297.6,42.3c-0.3,0.2-0.4,0.5-0.5,0.8c-0.1,0.2-0.1,0.5-0.1,0.8c0,0,0,0.1,0.1,0.1h3.1
			c0,0,0.1,0,0.1-0.1c0-0.3,0-0.5-0.1-0.7c-0.1-0.4-0.3-0.6-0.5-0.9c-0.3-0.2-0.6-0.3-1-0.3C298.1,42,297.8,42.1,297.6,42.3z"/>
		<path d="M307,41.1c0.1,0.1,0.1,0.1,0.1,0.3l-0.2,0.9c0,0.1-0.1,0.1-0.1,0.1c0,0-0.1,0-0.1,0c-0.1,0-0.3-0.1-0.5-0.1
			c-0.1,0-0.2,0-0.2,0c-0.4,0-0.8,0.2-1.1,0.4c-0.3,0.3-0.4,0.6-0.4,1.1v3.9c0,0.1,0,0.1-0.1,0.2s-0.1,0.1-0.2,0.1h-0.9
			c-0.1,0-0.1,0-0.2-0.1c0,0-0.1-0.1-0.1-0.2v-6.6c0-0.1,0-0.1,0.1-0.2c0,0,0.1-0.1,0.2-0.1h0.9c0.1,0,0.1,0,0.2,0.1
			s0.1,0.1,0.1,0.2v0.6c0,0,0,0.1,0,0.1c0,0,0,0,0,0c0.4-0.6,1-0.9,1.7-0.9C306.5,40.9,306.8,41,307,41.1z"/>
		<path d="M312.2,41.2c0.4,0.2,0.7,0.5,1,0.8s0.3,0.8,0.3,1.2v4.6c0,0.1,0,0.1-0.1,0.2s-0.1,0.1-0.2,0.1h-0.9c-0.1,0-0.1,0-0.2-0.1
			s-0.1-0.1-0.1-0.2v-0.4c0,0,0,0,0-0.1c0,0,0,0-0.1,0c-0.3,0.2-0.6,0.4-0.9,0.5c-0.4,0.1-0.7,0.2-1.1,0.2c-0.7,0-1.2-0.2-1.6-0.5
			c-0.4-0.3-0.6-0.9-0.6-1.6c0-0.7,0.2-1.3,0.7-1.7c0.5-0.4,1.2-0.6,2.1-0.6h1.5c0,0,0.1,0,0.1-0.1v-0.4c0-0.4-0.1-0.7-0.4-0.9
			c-0.2-0.2-0.6-0.3-1.1-0.3c-0.4,0-0.7,0.1-0.9,0.2c-0.2,0.1-0.4,0.3-0.5,0.6c0,0.1-0.1,0.2-0.2,0.2l-1-0.1c-0.1,0-0.1,0-0.2-0.1
			c0,0-0.1-0.1,0-0.1c0.1-0.5,0.4-0.9,0.9-1.3s1.1-0.5,1.9-0.5C311.3,40.9,311.8,41,312.2,41.2z M311.7,46.6c0.4-0.3,0.5-0.6,0.5-1
			v-0.8c0,0,0-0.1-0.1-0.1h-1.3c-0.5,0-1,0.1-1.3,0.3c-0.3,0.2-0.5,0.5-0.5,0.9c0,0.3,0.1,0.6,0.4,0.8c0.2,0.2,0.6,0.3,0.9,0.3
			C310.9,47,311.3,46.8,311.7,46.6z"/>
		<path d="M320.2,41.5c0.4,0.4,0.7,1,0.7,1.8v4.5c0,0.1,0,0.1-0.1,0.2s-0.1,0.1-0.2,0.1h-0.9c-0.1,0-0.1,0-0.2-0.1s-0.1-0.1-0.1-0.2
			v-4.2c0-0.5-0.1-0.8-0.4-1.1c-0.3-0.3-0.6-0.4-1.1-0.4c-0.4,0-0.7,0.1-1,0.4c-0.3,0.2-0.4,0.5-0.5,0.9v4.4c0,0.1,0,0.1-0.1,0.2
			s-0.1,0.1-0.2,0.1h-0.9c-0.1,0-0.1,0-0.2-0.1c0,0-0.1-0.1-0.1-0.2v-6.6c0-0.1,0-0.1,0.1-0.2c0,0,0.1-0.1,0.2-0.1h0.9
			c0.1,0,0.1,0,0.2,0.1s0.1,0.1,0.1,0.2v0.4c0,0,0,0,0,0.1c0,0,0,0,0,0c0.4-0.5,1-0.7,1.7-0.7C319.2,40.9,319.8,41.1,320.2,41.5z"/>
		<path d="M322.3,47.9c0,0-0.1-0.1-0.1-0.2v-0.9c0-0.1,0-0.2,0.1-0.2l3.6-4.4c0,0,0,0,0-0.1c0,0,0,0-0.1,0h-3.4
			c-0.1,0-0.1,0-0.2-0.1s-0.1-0.1-0.1-0.2v-0.8c0-0.1,0-0.1,0.1-0.2s0.1-0.1,0.2-0.1h4.8c0.1,0,0.1,0,0.2,0.1s0.1,0.1,0.1,0.2V42
			c0,0.1,0,0.2-0.1,0.3l-3.6,4.4c0,0,0,0,0,0.1c0,0,0,0,0.1,0h3.5c0.1,0,0.1,0,0.2,0.1s0.1,0.1,0.1,0.2v0.8c0,0.1,0,0.1-0.1,0.2
			s-0.1,0.1-0.2,0.1h-4.9C322.3,48,322.3,48,322.3,47.9z"/>
		<path d="M333,41.2c0.4,0.2,0.7,0.5,1,0.8s0.3,0.8,0.3,1.2v4.6c0,0.1,0,0.1-0.1,0.2s-0.1,0.1-0.2,0.1h-0.9c-0.1,0-0.1,0-0.2-0.1
			s-0.1-0.1-0.1-0.2v-0.4c0,0,0,0,0-0.1c0,0,0,0-0.1,0c-0.3,0.2-0.6,0.4-0.9,0.5c-0.4,0.1-0.7,0.2-1.1,0.2c-0.7,0-1.2-0.2-1.6-0.5
			c-0.4-0.3-0.6-0.9-0.6-1.6c0-0.7,0.2-1.3,0.7-1.7c0.5-0.4,1.2-0.6,2.1-0.6h1.5c0,0,0.1,0,0.1-0.1v-0.4c0-0.4-0.1-0.7-0.4-0.9
			c-0.2-0.2-0.6-0.3-1.1-0.3c-0.4,0-0.7,0.1-0.9,0.2c-0.2,0.1-0.4,0.3-0.5,0.6c0,0.1-0.1,0.2-0.2,0.2l-1-0.1c-0.1,0-0.1,0-0.2-0.1
			c0,0-0.1-0.1,0-0.1c0.1-0.5,0.4-0.9,0.9-1.3s1.1-0.5,1.9-0.5C332.1,40.9,332.6,41,333,41.2z M332.4,46.6c0.4-0.3,0.5-0.6,0.5-1
			v-0.8c0,0,0-0.1-0.1-0.1h-1.3c-0.5,0-1,0.1-1.3,0.3c-0.3,0.2-0.5,0.5-0.5,0.9c0,0.3,0.1,0.6,0.4,0.8c0.2,0.2,0.6,0.3,0.9,0.3
			C331.6,47,332,46.8,332.4,46.6z"/>
	</g>
	<path d="M284.6,20.5l8.1,9.1l-1.2,1.1l-6.8-7.7l-7,7.7l-1.2-1.1L284.6,20.5z"/>
	<g>
		<path d="M263.6,339.5c-0.5-0.3-0.9-0.6-1.2-1.1c-0.3-0.5-0.4-1-0.4-1.7v-3.6c0-0.6,0.1-1.2,0.4-1.6c0.3-0.5,0.7-0.8,1.2-1.1
			s1.1-0.4,1.7-0.4s1.2,0.1,1.7,0.4c0.5,0.3,0.9,0.6,1.2,1.1c0.3,0.5,0.4,1,0.4,1.6c0,0.1-0.1,0.1-0.2,0.2l-0.9,0.1h-0.1
			c0,0-0.1,0-0.1,0c0,0,0,0,0-0.1v-0.1c0-0.6-0.2-1.1-0.5-1.4c-0.4-0.4-0.9-0.5-1.5-0.5s-1.1,0.2-1.5,0.5c-0.4,0.4-0.6,0.8-0.6,1.4
			v3.6c0,0.6,0.2,1.1,0.6,1.4c0.4,0.4,0.9,0.5,1.5,0.5s1.1-0.2,1.5-0.5c0.4-0.4,0.5-0.8,0.5-1.4c0-0.1,0-0.1,0.1-0.1
			c0,0,0.1,0,0.2,0l0.9,0.1c0.1,0,0.2,0,0.2,0.1v0.1c0,0.6-0.1,1.1-0.4,1.6c-0.3,0.5-0.7,0.8-1.2,1.1c-0.5,0.3-1.1,0.4-1.7,0.4
			S264.2,339.7,263.6,339.5z"/>
		<path d="M274.4,332.9c0.4,0.2,0.7,0.5,1,0.8c0.2,0.4,0.3,0.8,0.3,1.2v4.6c0,0.1,0,0.1-0.1,0.2c0,0-0.1,0.1-0.2,0.1h-0.9
			c-0.1,0-0.1,0-0.2-0.1c0,0-0.1-0.1-0.1-0.2v-0.4c0,0,0,0,0-0.1c0,0,0,0-0.1,0c-0.3,0.2-0.6,0.4-0.9,0.5s-0.7,0.2-1.1,0.2
			c-0.7,0-1.2-0.2-1.6-0.5c-0.4-0.3-0.6-0.9-0.6-1.6c0-0.7,0.2-1.3,0.7-1.7c0.5-0.4,1.2-0.6,2.1-0.6h1.5c0,0,0.1,0,0.1-0.1V335
			c0-0.4-0.1-0.7-0.4-0.9c-0.2-0.2-0.6-0.3-1.1-0.3c-0.4,0-0.7,0.1-0.9,0.2c-0.2,0.1-0.4,0.3-0.5,0.6c0,0.1-0.1,0.2-0.2,0.2l-1-0.1
			c-0.1,0-0.1,0-0.2-0.1s-0.1-0.1,0-0.1c0.1-0.5,0.4-0.9,0.9-1.3s1.1-0.5,1.9-0.5C273.5,332.6,274,332.7,274.4,332.9z M273.9,338.3
			c0.4-0.3,0.5-0.6,0.5-1v-0.8c0,0,0-0.1-0.1-0.1h-1.3c-0.5,0-1,0.1-1.3,0.3c-0.3,0.2-0.5,0.5-0.5,0.9c0,0.3,0.1,0.6,0.4,0.8
			c0.2,0.2,0.6,0.3,0.9,0.3C273.1,338.7,273.5,338.6,273.9,338.3z"/>
		<path d="M277.6,339.7c0,0-0.1-0.1-0.1-0.2v-9.2c0-0.1,0-0.1,0.1-0.2c0,0,0.1-0.1,0.2-0.1h0.9c0.1,0,0.1,0,0.2,0.1
			c0,0,0.1,0.1,0.1,0.2v9.2c0,0.1,0,0.1-0.1,0.2c0,0-0.1,0.1-0.2,0.1h-0.9C277.6,339.7,277.6,339.7,277.6,339.7z"/>
		<path d="M280.8,339.7c0,0-0.1-0.1-0.1-0.2v-9.2c0-0.1,0-0.1,0.1-0.2c0,0,0.1-0.1,0.2-0.1h0.9c0.1,0,0.1,0,0.2,0.1
			c0,0,0.1,0.1,0.1,0.2v9.2c0,0.1,0,0.1-0.1,0.2c0,0-0.1,0.1-0.2,0.1H281C280.9,339.7,280.9,339.7,280.8,339.7z"/>
		<path d="M288.5,337.8c0-0.1,0.1-0.1,0.2-0.1c0,0,0.1,0,0.1,0l0.6,0.3c0.1,0,0.1,0.1,0.1,0.2l0,0.1c-0.2,0.4-0.6,0.8-1,1.1
			c-0.5,0.3-1,0.4-1.6,0.4c-0.6,0-1.2-0.1-1.6-0.4c-0.4-0.3-0.8-0.7-1-1.2c-0.2-0.6-0.3-1.2-0.3-2c0-0.7,0-1.2,0.2-1.5
			c0.2-0.6,0.5-1.1,1-1.5s1.1-0.5,1.8-0.5c0.9,0,1.5,0.2,2,0.7c0.5,0.5,0.8,1.1,0.9,2c0,0.3,0.1,0.8,0.1,1.2c0,0.1-0.1,0.2-0.2,0.2
			h-4.3c0,0-0.1,0-0.1,0.1c0,0.3,0.1,0.6,0.1,0.7c0.1,0.4,0.3,0.7,0.6,0.9c0.3,0.2,0.7,0.3,1.1,0.3
			C287.7,338.7,288.2,338.4,288.5,337.8z M285.8,334.1c-0.3,0.2-0.4,0.5-0.5,0.8c-0.1,0.2-0.1,0.5-0.1,0.8c0,0,0,0.1,0.1,0.1h3.1
			c0,0,0.1,0,0.1-0.1c0-0.3,0-0.5-0.1-0.7c-0.1-0.4-0.3-0.6-0.5-0.9c-0.3-0.2-0.6-0.3-1-0.3C286.4,333.8,286,333.9,285.8,334.1z"/>
		<path d="M294,339.7c0,0-0.1-0.1-0.1-0.2v-0.7c0-0.1,0-0.2,0.1-0.3c0.5-0.6,1-1.2,1.6-1.8c0.5-0.7,0.9-1.1,1.1-1.3
			c0,0,0.2-0.2,0.4-0.5c0.9-1,1.3-1.8,1.3-2.4c0-0.4-0.1-0.8-0.4-1s-0.7-0.4-1.1-0.4c-0.5,0-0.9,0.1-1.1,0.4s-0.4,0.6-0.4,1v0.3
			c0,0.1,0,0.1-0.1,0.2c0,0-0.1,0.1-0.2,0.1h-0.9c-0.1,0-0.1,0-0.2-0.1c0,0-0.1-0.1-0.1-0.2v-0.5c0-0.5,0.2-0.9,0.4-1.3
			c0.3-0.4,0.6-0.6,1-0.8c0.4-0.2,0.9-0.3,1.5-0.3c0.6,0,1.1,0.1,1.5,0.3c0.4,0.2,0.8,0.5,1,0.9c0.2,0.4,0.4,0.8,0.4,1.3
			c0,0.8-0.4,1.7-1.2,2.7c-0.5,0.7-1.4,1.8-2.7,3.3c0,0,0,0,0,0.1c0,0,0,0,0.1,0h4c0.1,0,0.1,0,0.2,0.1c0,0,0.1,0.1,0.1,0.2v0.7
			c0,0.1,0,0.1-0.1,0.2c0,0-0.1,0.1-0.2,0.1h-5.6C294.1,339.7,294,339.7,294,339.7z"/>
		<path d="M307.2,336.7c0,0.4-0.1,0.8-0.2,1.2c-0.2,0.6-0.5,1-1,1.4c-0.5,0.3-1.1,0.5-1.7,0.5c-0.7,0-1.2-0.2-1.7-0.5
			s-0.8-0.8-1-1.3c-0.1-0.2-0.1-0.4-0.2-0.6v0c0-0.1,0.1-0.2,0.2-0.2h0.9c0.1,0,0.2,0.1,0.2,0.2c0,0.1,0,0.2,0.1,0.2
			c0.1,0.3,0.3,0.6,0.5,0.8c0.3,0.2,0.6,0.3,0.9,0.3c0.4,0,0.7-0.1,0.9-0.3c0.3-0.2,0.4-0.5,0.5-0.9c0.1-0.2,0.1-0.4,0.1-0.8
			c0-0.2,0-0.5-0.1-0.9c-0.1-0.3-0.2-0.6-0.5-0.8c-0.3-0.2-0.6-0.3-1-0.3c-0.3,0-0.6,0.1-0.9,0.2s-0.4,0.3-0.6,0.6
			c-0.1,0.1-0.1,0.2-0.2,0.2h-1c-0.1,0-0.1,0-0.2-0.1c0,0-0.1-0.1-0.1-0.2v-5.2c0-0.1,0-0.1,0.1-0.2s0.1-0.1,0.2-0.1h5
			c0.1,0,0.1,0,0.2,0.1c0,0,0.1,0.1,0.1,0.2v0.7c0,0.1,0,0.1-0.1,0.2c0,0-0.1,0.1-0.2,0.1h-3.8c0,0-0.1,0-0.1,0.1l0,2.8
			c0,0.1,0,0.1,0.1,0c0.4-0.4,1-0.6,1.7-0.6c0.6,0,1.2,0.2,1.7,0.5c0.5,0.3,0.8,0.8,0.9,1.3C307.2,335.9,307.2,336.3,307.2,336.7z"
			/>
	</g>
	<path d="M284.4,358.2l-8.1-9.1l1.2-1.1l6.8,7.7l7-7.7l1.2,1.1L284.4,358.2z"/>
	<g>
		<path class="st6" d="M47.5,42.7L47,41.1c0,0,0-0.1-0.1-0.1h-3.8c0,0-0.1,0-0.1,0.1l-0.5,1.5c0,0.1-0.1,0.2-0.2,0.2h-1
			c-0.2,0-0.2-0.1-0.2-0.2l3-9.2c0-0.1,0.1-0.2,0.2-0.2h1.3c0.1,0,0.2,0.1,0.2,0.2l3,9.2c0,0,0,0,0,0.1c0,0.1-0.1,0.2-0.2,0.2h-1
			C47.6,42.8,47.5,42.8,47.5,42.7z M43.4,40h3.1c0.1,0,0.1,0,0.1-0.1L45,34.8c0,0,0-0.1,0-0.1c0,0,0,0,0,0.1L43.4,40
			C43.4,40,43.4,40,43.4,40z"/>
		<path class="st6" d="M54.1,35.9c0.1,0.1,0.1,0.1,0.1,0.3L54,37.1c0,0.1-0.1,0.1-0.1,0.1c0,0-0.1,0-0.1,0c-0.1,0-0.3-0.1-0.5-0.1
			c-0.1,0-0.2,0-0.2,0c-0.4,0-0.8,0.2-1.1,0.4c-0.3,0.3-0.4,0.6-0.4,1.1v3.9c0,0.1,0,0.1-0.1,0.2s-0.1,0.1-0.2,0.1h-0.9
			c-0.1,0-0.1,0-0.2-0.1c0,0-0.1-0.1-0.1-0.2v-6.6c0-0.1,0-0.1,0.1-0.2c0,0,0.1-0.1,0.2-0.1h0.9c0.1,0,0.1,0,0.2,0.1
			s0.1,0.1,0.1,0.2v0.6c0,0,0,0.1,0,0.1c0,0,0,0,0,0c0.4-0.6,1-0.9,1.7-0.9C53.6,35.8,53.9,35.8,54.1,35.9z"/>
		<path class="st6" d="M56.3,42.4c-0.5-0.4-0.8-0.8-1-1.4c-0.1-0.4-0.2-1-0.2-1.7c0-0.6,0.1-1.2,0.2-1.7c0.2-0.6,0.5-1.1,1-1.4
			c0.5-0.3,1.1-0.5,1.8-0.5s1.3,0.2,1.8,0.5c0.5,0.3,0.8,0.8,1,1.3c0,0.1,0.1,0.2,0.1,0.4v0c0,0.1-0.1,0.2-0.2,0.2l-0.9,0.1h0
			c-0.1,0-0.2,0-0.2-0.2l0-0.2c-0.1-0.3-0.3-0.6-0.5-0.8s-0.6-0.3-1-0.3c-0.4,0-0.7,0.1-1,0.3s-0.5,0.5-0.5,0.8
			c-0.1,0.3-0.1,0.8-0.1,1.3c0,0.5,0,1,0.1,1.3c0.1,0.4,0.3,0.7,0.5,0.9c0.3,0.2,0.6,0.3,1,0.3c0.4,0,0.7-0.1,1-0.3
			c0.3-0.2,0.5-0.5,0.5-0.8l0-0.1v0c0,0,0-0.1,0.1-0.1c0,0,0.1-0.1,0.2,0l0.9,0.2c0.1,0,0.2,0.1,0.2,0.2c0,0,0,0.1-0.1,0.3
			c-0.2,0.6-0.5,1-1,1.3S58.8,43,58.1,43C57.4,43,56.8,42.8,56.3,42.4z"/>
		<path class="st6" d="M63.5,42.4c-0.5-0.3-0.8-0.8-1-1.4c-0.2-0.5-0.2-1.1-0.2-1.7c0-0.6,0.1-1.2,0.2-1.6c0.2-0.6,0.6-1.1,1.1-1.4
			c0.5-0.3,1.1-0.5,1.8-0.5c0.7,0,1.2,0.2,1.7,0.5c0.5,0.3,0.8,0.8,1,1.4c0.2,0.5,0.2,1,0.2,1.6c0,0.6-0.1,1.2-0.2,1.7
			c-0.2,0.6-0.5,1.1-1,1.4C66.6,42.8,66,43,65.3,43C64.6,43,64,42.8,63.5,42.4z M66.3,41.5c0.3-0.2,0.5-0.5,0.6-0.9
			c0.1-0.3,0.2-0.8,0.2-1.3s0-0.9-0.1-1.3c-0.1-0.4-0.3-0.7-0.6-0.9c-0.3-0.2-0.6-0.3-1-0.3c-0.4,0-0.7,0.1-1,0.3
			c-0.3,0.2-0.5,0.5-0.6,0.9c-0.1,0.3-0.2,0.7-0.2,1.3c0,0.5,0.1,1,0.2,1.3c0.1,0.4,0.3,0.7,0.6,0.9c0.3,0.2,0.6,0.3,1,0.3
			C65.7,41.8,66,41.7,66.3,41.5z"/>
	</g>
	<path class="st6" d="M21,38.3l9.1-8.1l1.1,1.2l-7.7,6.8l7.7,7l-1.1,1.2L21,38.3z"/>
	<g>
		<path class="st6" d="M47,334.9c0.4,0.2,0.8,0.6,1,1c0.2,0.4,0.3,0.9,0.3,1.5s-0.1,1-0.4,1.4c-0.2,0.4-0.6,0.7-1,1
			s-0.9,0.3-1.5,0.3h-2.4c0,0-0.1,0-0.1,0.1v3.8c0,0.1,0,0.1-0.1,0.2c0,0-0.1,0.1-0.2,0.1h-0.9c-0.1,0-0.1,0-0.2-0.1
			c0,0-0.1-0.1-0.1-0.2v-9.2c0-0.1,0-0.1,0.1-0.2c0,0,0.1-0.1,0.2-0.1h3.6C46.1,334.5,46.6,334.6,47,334.9z M46.6,338.5
			c0.3-0.3,0.5-0.7,0.5-1.2c0-0.5-0.2-0.9-0.5-1.2c-0.3-0.3-0.7-0.5-1.2-0.5h-2.3c0,0-0.1,0-0.1,0.1v3.2c0,0,0,0.1,0.1,0.1h2.3
			C45.9,339,46.3,338.8,46.6,338.5z"/>
		<path class="st6" d="M49.9,344.1c0,0-0.1-0.1-0.1-0.2v-9.2c0-0.1,0-0.1,0.1-0.2c0,0,0.1-0.1,0.2-0.1h0.9c0.1,0,0.1,0,0.2,0.1
			c0,0,0.1,0.1,0.1,0.2v9.2c0,0.1,0,0.1-0.1,0.2c0,0-0.1,0.1-0.2,0.1H50C49.9,344.1,49.9,344.1,49.9,344.1z"/>
		<path class="st6" d="M57.1,337.3c0.4,0.2,0.7,0.5,1,0.8c0.2,0.4,0.3,0.8,0.3,1.2v4.6c0,0.1,0,0.1-0.1,0.2c0,0-0.1,0.1-0.2,0.1
			h-0.9c-0.1,0-0.1,0-0.2-0.1c0,0-0.1-0.1-0.1-0.2v-0.4c0,0,0,0,0-0.1s0,0-0.1,0c-0.3,0.2-0.6,0.4-0.9,0.5c-0.4,0.1-0.7,0.2-1.1,0.2
			c-0.7,0-1.2-0.2-1.6-0.5c-0.4-0.3-0.6-0.9-0.6-1.6c0-0.7,0.2-1.3,0.7-1.7c0.5-0.4,1.2-0.6,2.1-0.6H57c0,0,0.1,0,0.1-0.1v-0.4
			c0-0.4-0.1-0.7-0.3-0.9c-0.2-0.2-0.6-0.3-1.1-0.3c-0.4,0-0.7,0.1-0.9,0.2c-0.2,0.1-0.4,0.3-0.5,0.6c0,0.1-0.1,0.2-0.2,0.2l-1-0.1
			c-0.1,0-0.1,0-0.2-0.1c0,0-0.1-0.1,0-0.1c0.1-0.5,0.4-0.9,0.9-1.3s1.1-0.5,1.9-0.5C56.2,337.1,56.7,337.1,57.1,337.3z M56.5,342.8
			c0.4-0.3,0.5-0.6,0.5-1V341c0,0,0-0.1-0.1-0.1h-1.3c-0.5,0-1,0.1-1.3,0.3c-0.3,0.2-0.5,0.5-0.5,0.9c0,0.3,0.1,0.6,0.4,0.8
			s0.6,0.3,0.9,0.3C55.7,343.1,56.2,343,56.5,342.8z"/>
		<path class="st6" d="M59.6,344.1c0,0-0.1-0.1-0.1-0.2v-0.9c0-0.1,0-0.2,0.1-0.2l3.6-4.4c0,0,0,0,0-0.1s0,0-0.1,0h-3.4
			c-0.1,0-0.1,0-0.2-0.1c0,0-0.1-0.1-0.1-0.2v-0.8c0-0.1,0-0.1,0.1-0.2c0,0,0.1-0.1,0.2-0.1h4.8c0.1,0,0.1,0,0.2,0.1
			c0,0,0.1,0.1,0.1,0.2v0.9c0,0.1,0,0.2-0.1,0.3l-3.6,4.4c0,0,0,0,0,0.1s0,0,0.1,0h3.5c0.1,0,0.1,0,0.2,0.1c0,0,0.1,0.1,0.1,0.2v0.8
			c0,0.1,0,0.1-0.1,0.2c0,0-0.1,0.1-0.2,0.1h-4.9C59.7,344.1,59.7,344.1,59.6,344.1z"/>
		<path class="st6" d="M67.4,343.7c-0.5-0.3-0.8-0.8-1-1.4c-0.2-0.5-0.2-1.1-0.2-1.7c0-0.6,0.1-1.2,0.2-1.6c0.2-0.6,0.6-1.1,1.1-1.4
			s1.1-0.5,1.8-0.5c0.7,0,1.2,0.2,1.7,0.5s0.8,0.8,1,1.4c0.2,0.5,0.2,1,0.2,1.6c0,0.6-0.1,1.2-0.2,1.7c-0.2,0.6-0.5,1.1-1,1.4
			c-0.5,0.3-1.1,0.5-1.7,0.5C68.5,344.3,67.9,344.1,67.4,343.7z M70.2,342.8c0.3-0.2,0.5-0.5,0.6-0.9c0.1-0.3,0.2-0.8,0.2-1.3
			c0-0.5,0-0.9-0.1-1.3c-0.1-0.4-0.3-0.7-0.6-0.9c-0.3-0.2-0.6-0.3-1-0.3c-0.4,0-0.7,0.1-1,0.3c-0.3,0.2-0.5,0.5-0.6,0.9
			c-0.1,0.3-0.2,0.7-0.2,1.3c0,0.5,0.1,1,0.2,1.3c0.1,0.4,0.3,0.7,0.6,0.9c0.3,0.2,0.6,0.3,1,0.3C69.6,343.1,69.9,343,70.2,342.8z"
			/>
		<path class="st6" d="M74,344.1c0,0-0.1-0.1-0.1-0.2v-9.2c0-0.1,0-0.1,0.1-0.2c0,0,0.1-0.1,0.2-0.1h0.9c0.1,0,0.1,0,0.2,0.1
			c0,0,0.1,0.1,0.1,0.2v9.2c0,0.1,0,0.1-0.1,0.2c0,0-0.1,0.1-0.2,0.1h-0.9C74.1,344.1,74.1,344.1,74,344.1z"/>
		<path class="st6" d="M81.7,342.3c0-0.1,0.1-0.1,0.2-0.1c0,0,0.1,0,0.1,0l0.6,0.3c0.1,0,0.1,0.1,0.1,0.2l0,0.1
			c-0.2,0.4-0.6,0.8-1,1.1c-0.5,0.3-1,0.4-1.6,0.4c-0.6,0-1.2-0.1-1.6-0.4c-0.4-0.3-0.8-0.7-1-1.2c-0.2-0.6-0.3-1.2-0.3-2
			c0-0.7,0-1.2,0.2-1.5c0.2-0.6,0.5-1.1,1-1.5s1.1-0.5,1.8-0.5c0.9,0,1.5,0.2,2,0.7c0.5,0.5,0.8,1.1,0.9,2c0,0.3,0.1,0.8,0.1,1.2
			c0,0.1-0.1,0.2-0.2,0.2h-4.3c0,0-0.1,0-0.1,0.1c0,0.3,0.1,0.6,0.1,0.7c0.1,0.4,0.3,0.7,0.6,0.9c0.3,0.2,0.7,0.3,1.1,0.3
			C80.9,343.1,81.4,342.8,81.7,342.3z M79,338.5c-0.3,0.2-0.4,0.5-0.5,0.8c-0.1,0.2-0.1,0.5-0.1,0.8c0,0,0,0.1,0.1,0.1h3.1
			c0,0,0.1,0,0.1-0.1c0-0.3,0-0.5-0.1-0.7c-0.1-0.4-0.3-0.6-0.5-0.9c-0.3-0.2-0.6-0.3-1-0.3C79.6,338.2,79.2,338.3,79,338.5z"/>
		<path class="st6" d="M87.9,338.2c0,0-0.1,0.1-0.2,0.1h-1.4c0,0-0.1,0-0.1,0.1v3.6c0,0.4,0.1,0.7,0.3,0.8c0.2,0.2,0.4,0.2,0.8,0.2
			h0.3c0.1,0,0.1,0,0.2,0.1c0,0,0.1,0.1,0.1,0.2v0.7c0,0.1-0.1,0.2-0.2,0.2l-0.6,0c-0.7,0-1.2-0.1-1.6-0.4s-0.5-0.7-0.5-1.4v-4.1
			c0,0,0-0.1-0.1-0.1h-0.8c-0.1,0-0.1,0-0.2-0.1c0,0-0.1-0.1-0.1-0.2v-0.7c0-0.1,0-0.1,0.1-0.2c0,0,0.1-0.1,0.2-0.1h0.8
			c0,0,0.1,0,0.1-0.1v-1.5c0-0.1,0-0.1,0.1-0.2c0,0,0.1-0.1,0.2-0.1H86c0.1,0,0.1,0,0.2,0.1c0,0,0.1,0.1,0.1,0.2v1.5
			c0,0,0,0.1,0.1,0.1h1.4c0.1,0,0.1,0,0.2,0.1c0,0,0.1,0.1,0.1,0.2v0.7C87.9,338.1,87.9,338.2,87.9,338.2z"/>
		<path class="st6" d="M93.6,337.3c0.4,0.2,0.7,0.5,1,0.8c0.2,0.4,0.3,0.8,0.3,1.2v4.6c0,0.1,0,0.1-0.1,0.2c0,0-0.1,0.1-0.2,0.1
			h-0.9c-0.1,0-0.1,0-0.2-0.1c0,0-0.1-0.1-0.1-0.2v-0.4c0,0,0,0,0-0.1c0,0,0,0-0.1,0c-0.3,0.2-0.6,0.4-0.9,0.5
			c-0.4,0.1-0.7,0.2-1.1,0.2c-0.7,0-1.2-0.2-1.6-0.5c-0.4-0.3-0.6-0.9-0.6-1.6c0-0.7,0.2-1.3,0.7-1.7c0.5-0.4,1.2-0.6,2.1-0.6h1.5
			c0,0,0.1,0,0.1-0.1v-0.4c0-0.4-0.1-0.7-0.4-0.9c-0.2-0.2-0.6-0.3-1.1-0.3c-0.4,0-0.7,0.1-0.9,0.2c-0.2,0.1-0.4,0.3-0.5,0.6
			c0,0.1-0.1,0.2-0.2,0.2l-1-0.1c-0.1,0-0.1,0-0.2-0.1c0,0,0-0.1,0-0.1c0.1-0.5,0.4-0.9,0.9-1.3s1.1-0.5,1.9-0.5
			C92.7,337.1,93.2,337.1,93.6,337.3z M93,342.8c0.4-0.3,0.5-0.6,0.5-1V341c0,0,0-0.1-0.1-0.1h-1.3c-0.5,0-1,0.1-1.3,0.3
			c-0.3,0.2-0.5,0.5-0.5,0.9c0,0.3,0.1,0.6,0.4,0.8c0.2,0.2,0.6,0.3,0.9,0.3C92.2,343.1,92.6,343,93,342.8z"/>
		<path class="st6" d="M103.7,334.6c0,0,0.1-0.1,0.2-0.1h0.9c0.1,0,0.1,0,0.2,0.1c0,0,0.1,0.1,0.1,0.2v9.2c0,0.1,0,0.1-0.1,0.2
			c0,0-0.1,0.1-0.2,0.1h-0.9c-0.1,0-0.1,0-0.2-0.1c0,0-0.1-0.1-0.1-0.2v-0.4c0,0,0,0,0-0.1s0,0-0.1,0c-0.2,0.2-0.4,0.4-0.7,0.5
			s-0.6,0.2-0.9,0.2c-0.7,0-1.2-0.2-1.6-0.5c-0.4-0.3-0.8-0.8-1-1.4c-0.2-0.5-0.2-1-0.2-1.8c0-0.7,0.1-1.2,0.2-1.7
			c0.2-0.6,0.5-1.1,1-1.4c0.4-0.3,1-0.5,1.7-0.5c0.3,0,0.6,0.1,0.9,0.2c0.3,0.1,0.5,0.3,0.7,0.5c0,0,0,0,0.1,0c0,0,0,0,0,0v-3
			C103.6,334.7,103.7,334.6,103.7,334.6z M103.6,340.6c0-0.8-0.1-1.3-0.4-1.8c-0.3-0.5-0.7-0.7-1.2-0.7c-0.5,0-0.9,0.2-1.2,0.7
			c-0.3,0.5-0.4,1.1-0.4,1.8c0,0.7,0.1,1.3,0.3,1.7c0.3,0.5,0.7,0.8,1.3,0.8c0.5,0,0.9-0.2,1.2-0.7
			C103.5,342,103.6,341.4,103.6,340.6z"/>
		<path class="st6" d="M111.4,342.3c0-0.1,0.1-0.1,0.2-0.1c0,0,0.1,0,0.1,0l0.6,0.3c0.1,0,0.1,0.1,0.1,0.2l0,0.1
			c-0.2,0.4-0.6,0.8-1,1.1c-0.5,0.3-1,0.4-1.6,0.4c-0.6,0-1.2-0.1-1.6-0.4s-0.8-0.7-1-1.2c-0.2-0.6-0.3-1.2-0.3-2
			c0-0.7,0-1.2,0.2-1.5c0.2-0.6,0.5-1.1,1-1.5s1.1-0.5,1.8-0.5c0.9,0,1.5,0.2,2,0.7c0.5,0.5,0.8,1.1,0.9,2c0,0.3,0.1,0.8,0.1,1.2
			c0,0.1-0.1,0.2-0.2,0.2h-4.3c0,0-0.1,0-0.1,0.1c0,0.3,0,0.6,0.1,0.7c0.1,0.4,0.3,0.7,0.6,0.9c0.3,0.2,0.7,0.3,1.1,0.3
			C110.6,343.1,111.1,342.8,111.4,342.3z M108.7,338.5c-0.3,0.2-0.4,0.5-0.5,0.8c-0.1,0.2-0.1,0.5-0.1,0.8c0,0,0,0.1,0.1,0.1h3.1
			c0,0,0.1,0,0.1-0.1c0-0.3,0-0.5-0.1-0.7c-0.1-0.4-0.3-0.6-0.5-0.9c-0.3-0.2-0.6-0.3-1-0.3S108.9,338.3,108.7,338.5z"/>
		<path class="st6" d="M43.1,360.3c-0.5-0.3-0.9-0.6-1.2-1.1c-0.3-0.5-0.4-1-0.4-1.7V354c0-0.6,0.1-1.2,0.4-1.6
			c0.3-0.5,0.7-0.8,1.2-1.1s1.1-0.4,1.7-0.4c0.7,0,1.2,0.1,1.7,0.4c0.5,0.3,0.9,0.6,1.2,1.1c0.3,0.5,0.4,1,0.4,1.6
			c0,0.1-0.1,0.1-0.2,0.2l-0.9,0.1h-0.1c0,0-0.1,0-0.1,0c0,0,0,0,0-0.1V354c0-0.6-0.2-1.1-0.5-1.4c-0.4-0.4-0.9-0.5-1.5-0.5
			c-0.6,0-1.1,0.2-1.5,0.5c-0.4,0.4-0.6,0.8-0.6,1.4v3.6c0,0.6,0.2,1.1,0.6,1.4c0.4,0.4,0.9,0.5,1.5,0.5c0.6,0,1.1-0.2,1.5-0.5
			c0.4-0.4,0.5-0.8,0.5-1.4c0-0.1,0-0.1,0.1-0.1c0,0,0.1,0,0.2,0l0.9,0.1c0.1,0,0.2,0,0.2,0.1v0.1c0,0.6-0.1,1.1-0.4,1.6
			s-0.7,0.8-1.2,1.1c-0.5,0.3-1.1,0.4-1.7,0.4C44.2,360.7,43.7,360.6,43.1,360.3z"/>
		<path class="st6" d="M51.1,360.2c-0.5-0.3-0.8-0.8-1-1.4c-0.2-0.5-0.2-1.1-0.2-1.7c0-0.6,0.1-1.2,0.2-1.6c0.2-0.6,0.6-1.1,1.1-1.4
			s1.1-0.5,1.8-0.5c0.7,0,1.2,0.2,1.7,0.5s0.8,0.8,1,1.4c0.2,0.5,0.2,1,0.2,1.6c0,0.6-0.1,1.2-0.2,1.7c-0.2,0.6-0.5,1.1-1,1.4
			c-0.5,0.3-1.1,0.5-1.7,0.5C52.1,360.7,51.6,360.5,51.1,360.2z M53.8,359.3c0.3-0.2,0.5-0.5,0.6-0.9c0.1-0.3,0.2-0.8,0.2-1.3
			c0-0.5,0-0.9-0.1-1.3c-0.1-0.4-0.3-0.7-0.6-0.9c-0.3-0.2-0.6-0.3-1-0.3c-0.4,0-0.7,0.1-1,0.3c-0.3,0.2-0.5,0.5-0.6,0.9
			c-0.1,0.3-0.2,0.7-0.2,1.3c0,0.5,0.1,1,0.2,1.3c0.1,0.4,0.3,0.7,0.6,0.9c0.3,0.2,0.6,0.3,1,0.3C53.2,359.6,53.5,359.5,53.8,359.3z
			"/>
		<path class="st6" d="M66.5,354.2c0.4,0.4,0.6,1,0.6,1.7v4.5c0,0.1,0,0.1-0.1,0.2c0,0-0.1,0.1-0.2,0.1H66c-0.1,0-0.1,0-0.2-0.1
			c0,0-0.1-0.1-0.1-0.2v-4.2c0-0.5-0.1-0.8-0.4-1.1c-0.3-0.3-0.6-0.4-1-0.4c-0.4,0-0.8,0.1-1,0.4c-0.3,0.3-0.4,0.6-0.4,1.1v4.3
			c0,0.1,0,0.1-0.1,0.2c0,0-0.1,0.1-0.2,0.1h-0.9c-0.1,0-0.1,0-0.2-0.1c0,0-0.1-0.1-0.1-0.2v-4.2c0-0.5-0.1-0.8-0.4-1.1
			s-0.6-0.4-1-0.4s-0.8,0.1-1,0.4c-0.3,0.3-0.4,0.6-0.4,1.1v4.3c0,0.1,0,0.1-0.1,0.2c0,0-0.1,0.1-0.2,0.1h-0.9c-0.1,0-0.1,0-0.2-0.1
			c0,0-0.1-0.1-0.1-0.2v-6.6c0-0.1,0-0.1,0.1-0.2c0,0,0.1-0.1,0.2-0.1h0.9c0.1,0,0.1,0,0.2,0.1c0,0,0.1,0.1,0.1,0.2v0.4
			c0,0,0,0,0,0.1c0,0,0,0,0.1,0c0.4-0.5,1-0.7,1.7-0.7c0.5,0,0.9,0.1,1.2,0.3s0.6,0.4,0.8,0.8c0,0,0.1,0,0.1,0
			c0.2-0.4,0.5-0.6,0.9-0.8s0.8-0.3,1.2-0.3C65.5,353.5,66.1,353.7,66.5,354.2z"/>
		<path class="st6" d="M69,352.3c-0.2-0.2-0.3-0.4-0.3-0.6c0-0.3,0.1-0.5,0.3-0.6c0.2-0.2,0.4-0.2,0.7-0.2s0.5,0.1,0.6,0.2
			c0.2,0.2,0.2,0.4,0.2,0.6c0,0.3-0.1,0.5-0.2,0.6c-0.2,0.2-0.4,0.2-0.6,0.2S69.2,352.5,69,352.3z M69.1,360.6c0,0-0.1-0.1-0.1-0.2
			v-6.6c0-0.1,0-0.1,0.1-0.2c0,0,0.1-0.1,0.2-0.1h0.9c0.1,0,0.1,0,0.2,0.1c0,0,0.1,0.1,0.1,0.2v6.6c0,0.1,0,0.1-0.1,0.2
			c0,0-0.1,0.1-0.2,0.1h-0.9C69.2,360.6,69.1,360.6,69.1,360.6z"/>
		<path class="st6" d="M76.7,351.1c0,0,0.1-0.1,0.2-0.1h0.9c0.1,0,0.1,0,0.2,0.1c0,0,0.1,0.1,0.1,0.2v9.2c0,0.1,0,0.1-0.1,0.2
			c0,0-0.1,0.1-0.2,0.1h-0.9c-0.1,0-0.1,0-0.2-0.1c0,0-0.1-0.1-0.1-0.2V360c0,0,0,0,0-0.1c0,0,0,0-0.1,0c-0.2,0.2-0.4,0.4-0.7,0.5
			c-0.3,0.1-0.6,0.2-0.9,0.2c-0.7,0-1.2-0.2-1.6-0.5c-0.4-0.3-0.8-0.8-1-1.4c-0.2-0.5-0.2-1-0.2-1.8c0-0.7,0.1-1.2,0.2-1.7
			c0.2-0.6,0.5-1.1,1-1.4s1-0.5,1.7-0.5c0.3,0,0.6,0.1,0.9,0.2c0.3,0.1,0.5,0.3,0.7,0.5c0,0,0,0,0.1,0c0,0,0,0,0,0v-3
			C76.6,351.1,76.6,351.1,76.7,351.1z M76.6,357.1c0-0.8-0.1-1.3-0.4-1.8c-0.3-0.5-0.7-0.7-1.2-0.7c-0.5,0-0.9,0.2-1.2,0.7
			c-0.3,0.5-0.4,1.1-0.4,1.8c0,0.7,0.1,1.3,0.3,1.7c0.3,0.5,0.7,0.8,1.3,0.8c0.5,0,0.9-0.2,1.2-0.7
			C76.5,358.4,76.6,357.9,76.6,357.1z"/>
		<path class="st6" d="M83.9,353.8c0.4,0.2,0.7,0.5,1,0.8c0.2,0.4,0.3,0.8,0.3,1.2v4.6c0,0.1,0,0.1-0.1,0.2c0,0-0.1,0.1-0.2,0.1
			h-0.9c-0.1,0-0.1,0-0.2-0.1c0,0-0.1-0.1-0.1-0.2V360c0,0,0,0,0-0.1s0,0-0.1,0c-0.3,0.2-0.6,0.4-0.9,0.5c-0.4,0.1-0.7,0.2-1.1,0.2
			c-0.7,0-1.2-0.2-1.6-0.5c-0.4-0.3-0.6-0.9-0.6-1.6c0-0.7,0.2-1.3,0.7-1.7c0.5-0.4,1.2-0.6,2.1-0.6h1.5c0,0,0.1,0,0.1-0.1v-0.4
			c0-0.4-0.1-0.7-0.3-0.9c-0.2-0.2-0.6-0.3-1.1-0.3c-0.4,0-0.7,0.1-0.9,0.2c-0.2,0.1-0.4,0.3-0.5,0.6c0,0.1-0.1,0.2-0.2,0.2l-1-0.1
			c-0.1,0-0.1,0-0.2-0.1c0,0-0.1-0.1,0-0.1c0.1-0.5,0.4-0.9,0.9-1.3s1.1-0.5,1.9-0.5C83,353.5,83.5,353.6,83.9,353.8z M83.3,359.2
			c0.4-0.3,0.5-0.6,0.5-1v-0.8c0,0,0-0.1-0.1-0.1h-1.3c-0.5,0-1,0.1-1.3,0.3c-0.3,0.2-0.5,0.5-0.5,0.9c0,0.3,0.1,0.6,0.4,0.8
			s0.6,0.3,0.9,0.3C82.5,359.6,83,359.5,83.3,359.2z"/>
		<path class="st6" d="M88,360.4c-0.4-0.2-0.7-0.4-1-0.7s-0.3-0.6-0.3-1v-0.1c0-0.1,0-0.1,0.1-0.2c0,0,0.1-0.1,0.2-0.1h0.9
			c0.1,0,0.1,0,0.2,0c0,0,0.1,0,0.1,0.1v0.1c0,0.3,0.1,0.5,0.4,0.7c0.3,0.2,0.6,0.3,1,0.3s0.8-0.1,1-0.3c0.3-0.2,0.4-0.4,0.4-0.7
			c0-0.3-0.1-0.5-0.4-0.6c-0.2-0.1-0.6-0.3-1.2-0.4c-0.5-0.1-1-0.3-1.3-0.4c-0.4-0.2-0.7-0.4-0.9-0.6c-0.2-0.3-0.4-0.6-0.4-1.1
			c0-0.6,0.2-1.1,0.7-1.5c0.5-0.4,1.1-0.5,1.9-0.5c0.5,0,1,0.1,1.4,0.3s0.7,0.4,0.9,0.7c0.2,0.3,0.3,0.6,0.3,1c0,0.1,0,0.1-0.1,0.1
			c0,0-0.1,0-0.2,0H91c-0.1,0-0.1,0-0.2,0c0,0-0.1,0-0.1-0.1v-0.1c0-0.3-0.1-0.5-0.4-0.7s-0.6-0.3-1.1-0.3c-0.4,0-0.7,0.1-1,0.2
			s-0.4,0.4-0.4,0.6c0,0.3,0.1,0.5,0.4,0.6c0.2,0.1,0.6,0.3,1.2,0.4c0.5,0.1,1,0.3,1.3,0.4c0.4,0.1,0.7,0.4,0.9,0.6
			c0.2,0.3,0.4,0.6,0.4,1.1c0,0.6-0.2,1.1-0.7,1.5c-0.5,0.4-1.1,0.5-2,0.5C88.9,360.7,88.4,360.6,88,360.4z"/>
	</g>
	<path class="st6" d="M21,347.8l9.1-8.1l1.1,1.2l-7.7,6.8l7.7,7l-1.1,1.2L21,347.8z"/>
</g>
</svg>
